<?xml version="1.0" encoding="UTF-8" standalone="no"?>
<svg width="765px" height="729px" viewBox="0 0 765 729" version="1.1" xmlns="http://www.w3.org/2000/svg" xmlns:xlink="http://www.w3.org/1999/xlink">
    <!-- Generator: Sketch 42 (36781) - http://www.bohemiancoding.com/sketch -->
    <title>feathers squished</title>
    <desc>Created with Sketch.</desc>
    <defs>
        <ellipse id="path-1" cx="13.6455517" cy="8.47938212" rx="13.4616635" ry="7.79262007"></ellipse>
        <ellipse id="path-3" cx="13.6455517" cy="8.47938212" rx="13.4616635" ry="7.79262007"></ellipse>
        <path d="M10.8444372,9.27179487 C16.7320958,9.27179487 21.5049862,9.52629861 21.5049862,6.38244484 C21.5049862,3.23859107 16.7320958,0.689994037 10.8444372,0.689994037 C4.95677861,0.689994037 0.183888257,3.23859107 0.183888257,6.38244484 C0.183888257,9.52629861 4.95677861,9.27179487 10.8444372,9.27179487 Z" id="path-5"></path>
        <path d="M10.8444372,9.27179487 C16.7320958,9.27179487 21.5049862,9.52629861 21.5049862,6.38244484 C21.5049862,3.23859107 16.7320958,0.689994037 10.8444372,0.689994037 C4.95677861,0.689994037 0.183888257,3.23859107 0.183888257,6.38244484 C0.183888257,9.52629861 4.95677861,9.27179487 10.8444372,9.27179487 Z" id="path-7"></path>
        <ellipse id="path-9" cx="13.0974532" cy="10.4890223" rx="13.0974532" ry="10.4890223"></ellipse>
        <ellipse id="path-11" cx="13.0974532" cy="10.4890223" rx="13.0974532" ry="10.4890223"></ellipse>
        <radialGradient cx="36.668276%" cy="14.6023337%" fx="36.668276%" fy="14.6023337%" r="68.1309582%" id="radialGradient-13">
            <stop stop-color="#F1E3CC" offset="0%"></stop>
            <stop stop-color="#E2C698" offset="38.6171632%"></stop>
            <stop stop-color="#C4957F" offset="100%"></stop>
        </radialGradient>
        <path d="M42.6681095,37.0869507 C59.3516674,37.0869507 66.3084012,60.3736631 66.3084012,40.4014088 C66.3084012,20.4291545 52.7837053,4.23844341 36.1001474,4.23844341 C19.4165895,4.23844341 3.66337244,34.1405761 3.66337244,54.1128304 C3.66337244,74.0850847 25.9845516,37.0869507 42.6681095,37.0869507 Z" id="path-14"></path>
        <path d="M41.8951124,37.5925257 C58.5786703,37.5925257 66.7397314,54.4378568 66.7397314,34.4656025 C66.7397314,14.4933482 52.0107082,4.74401836 35.3271503,4.74401836 C18.6435924,4.74401836 3.73121061,28.6776461 3.73121061,48.6499004 C3.73121061,68.6221546 25.2115545,37.5925257 41.8951124,37.5925257 Z" id="path-16"></path>
        <ellipse id="path-18" cx="9.73620522" cy="6.05000162" rx="9.60499954" ry="5.55999994"></ellipse>
        <ellipse id="path-20" cx="9.73620522" cy="6.05000162" rx="9.60499954" ry="5.55999994"></ellipse>
        <path d="M7.73758865,6.61538462 C11.938478,6.61538462 15.3439716,6.79697191 15.3439716,4.55384615 C15.3439716,2.3107204 11.938478,0.492307692 7.73758865,0.492307692 C3.53669933,0.492307692 0.131205674,2.3107204 0.131205674,4.55384615 C0.131205674,6.79697191 3.53669933,6.61538462 7.73758865,6.61538462 Z" id="path-22"></path>
        <path d="M7.73758865,6.61538462 C11.938478,6.61538462 15.3439716,6.79697191 15.3439716,4.55384615 C15.3439716,2.3107204 11.938478,0.492307692 7.73758865,0.492307692 C3.53669933,0.492307692 0.131205674,2.3107204 0.131205674,4.55384615 C0.131205674,6.79697191 3.53669933,6.61538462 7.73758865,6.61538462 Z" id="path-24"></path>
        <ellipse id="path-26" cx="9.34513274" cy="7.48387097" rx="9.34513274" ry="7.48387097"></ellipse>
        <ellipse id="path-28" cx="9.34513274" cy="7.48387097" rx="9.34513274" ry="7.48387097"></ellipse>
    </defs>
    <g id="Page-1" stroke="none" stroke-width="1" fill="none" fill-rule="evenodd">
        <g id="feathers-squished" transform="translate(-76.000000, 0.000000)">
            <g id="feather-squished-c" transform="translate(301.936726, 443.133559) rotate(239.000000) translate(-301.936726, -443.133559) translate(101.436726, 211.633559)">
                <g id="feather-body" transform="translate(-0.000000, 0.000000)">
                    <path d="M191.154735,462.351437 C215.477743,462.351437 227.982699,419.276755 239.690667,366.774764 C240.249673,364.268013 208.428596,386.34082 208.974592,383.768485 C209.520587,381.19615 244.677385,359.334037 245.226137,356.627296 C252.543532,320.533954 258.845624,278.992789 265.977511,238.343182 C271.185886,208.657011 273.878004,196.844969 265.564652,191.947708 C260.379071,188.892967 251.326794,192.368217 247.2687,189.642911 C243.210605,186.917605 237.6456,172.649988 239.637217,170.295861 C241.417381,168.191676 248.514632,161.272423 257.909519,160.284963 C267.304407,159.297504 272.985408,168.25041 273.051092,166.783862 C273.430226,158.318771 275.991439,126.585924 276.363686,118.279667 C277.248802,98.5293125 276.795431,60.2078477 271.481337,34.403847 C271.085616,32.4823217 242.977622,57.9196231 242.534101,56.0763688 C241.933734,53.5812725 268.343062,30.0002537 267.651096,27.6820035 C262.801795,11.4357098 255.646492,0.00414349511 245.390911,0.00414349511 C225.575395,0.00414349511 197.946333,25.327474 174.064831,64.8233996 C171.210524,69.5439371 196.25819,129.278682 196.25819,129.278682 C196.25819,129.278682 162.324657,85.9829033 160.692922,89.2891244 C156.971382,96.8297126 153.421226,104.714177 150.098448,112.88851 C149.369179,114.682578 146.561975,121.915804 145.888309,123.736661 C145.219884,125.543353 145.841841,133.408223 144.924266,136.229156 C134.546315,168.134466 124.125055,204.588309 124.125055,240.21667 C124.125055,267.694697 125.340087,293.962207 127.700356,318.193049 C128.066782,321.954825 175.735607,370.449642 175.735607,370.449642 C175.735607,370.449642 130.210252,329.963579 130.446559,331.856543 C139.862555,407.284239 160.310712,462.351437 191.154735,462.351437 Z" id="Oval" fill="#E1F6F7" transform="translate(200.423292, 231.177790) rotate(37.000000) translate(-200.423292, -231.177790) "></path>
                    <path d="M344.737258,96.3903174 C344.737258,96.3903174 226.506056,189.189252 179.143398,241.497221 C131.780739,293.805189 13.5495371,462.15857 13.5495371,462.15857" id="Path-2" stroke="#F3F5E9" stroke-width="9"></path>
                    <path d="M352.280531,96.925903 C352.280531,96.925903 248.703852,176.009627 207.2117,220.586743 C165.719549,265.163859 62.142869,408.635465 62.142869,408.635465" id="Path-2-Copy" stroke="#E1F6F7" stroke-width="4" transform="translate(207.211700, 252.780684) rotate(-1.000000) translate(-207.211700, -252.780684) "></path>
                </g>
                <g id="eye-left" transform="translate(263.888550, 180.800000)">
                    <mask id="mask-2" fill="white">
                        <use xlink:href="#path-1"></use>
                    </mask>
                    <use id="Mask" fill="#FFFFFF" xlink:href="#path-1"></use>
                    <ellipse id="Oval-3" fill="#000000" mask="url(#mask-2)" cx="15.218589" cy="13.7665091" rx="5.66917568" ry="5.67598062"></ellipse>
                </g>
                <g id="eye-right" transform="translate(293.320611, 175.193798)">
                    <mask id="mask-4" fill="white">
                        <use xlink:href="#path-3"></use>
                    </mask>
                    <use id="Mask" fill="#FFFFFF" xlink:href="#path-3"></use>
                    <ellipse id="Oval-3" fill="#000000" mask="url(#mask-4)" cx="16.4326951" cy="13.3125657" rx="5.66917568" ry="5.67598062"></ellipse>
                </g>
            </g>
            <g id="feather-squished-b-" transform="translate(613.033701, 419.182766) scale(1, -1) rotate(-303.000000) translate(-613.033701, -419.182766) translate(412.533701, 187.682766)">
                <g id="feather-body">
                    <path d="M191.109153,462.487667 C215.432162,462.487667 227.937118,419.412985 239.645085,366.910995 C240.204092,364.404243 208.383015,386.477051 208.92901,383.904716 C209.475006,381.33238 244.631804,359.470268 245.180556,356.763527 C247.085456,347.367532 248.921549,337.602344 250.721388,327.579801 C251.562157,322.897916 216.383464,340.800768 216.383464,340.800768 C216.383464,340.800768 254.893197,303.661288 255.724544,298.746563 C259.072888,278.951947 262.400694,258.606394 265.93193,238.479413 C271.140305,208.793241 272.546284,173.272864 272.546284,173.272864 C272.546284,173.272864 264.103952,185.46497 258.502833,188.304622 C252.901715,191.144275 231.366035,192.6011 233.523105,190.051405 C235.303269,187.94722 249.779806,169.424922 256.840819,164.536306 C263.901831,159.647689 277.001028,164.588498 277.066712,163.12195 C277.445847,154.656858 275.945858,126.722155 276.318105,118.415897 C277.203221,98.6655429 276.749849,60.3440782 271.435755,34.5400774 C271.040035,32.6185521 242.932041,58.0558535 242.488519,56.2125992 C241.888153,53.7175029 268.297481,30.1364841 267.605515,27.8182339 C262.756213,11.5719402 255.600911,0.140373927 245.345329,0.140373927 C218.338848,0.140373927 176.818824,47.1780737 150.052867,113.02474 C149.323598,114.818808 188.48039,182.886894 187.773618,184.708317 C187.076951,186.503697 146.516393,122.052034 145.842728,123.872891 C145.174302,125.679584 145.796259,133.544453 144.878685,136.365386 C134.500734,168.270696 124.079474,204.72454 124.079474,240.352901 C124.079474,267.830928 125.294505,294.098438 127.654775,318.32928 C128.0212,322.091056 175.690026,370.585872 175.690026,370.585872 C175.690026,370.585872 130.16467,330.099809 130.400978,331.992773 C139.816974,407.42047 160.265131,462.487667 191.109153,462.487667 Z" id="Oval" fill="#DAF1F3" transform="translate(200.604073, 231.314021) rotate(37.000000) translate(-200.604073, -231.314021) "></path>
                    <path d="M344.737258,96.3903174 C344.737258,96.3903174 226.506056,189.189252 179.143398,241.497221 C131.780739,293.805189 13.5495371,462.15857 13.5495371,462.15857" id="Path-2" stroke="#F3F5E9" stroke-width="10"></path>
                    <path d="M361.77283,92.4405172 C361.77283,92.4405172 253.740943,172.335604 210.464064,217.370062 C167.187186,262.404519 59.155299,407.34808 59.155299,407.34808" id="Path-2-Copy" stroke="#DAF1F3" stroke-width="9" transform="translate(210.464064, 249.894298) rotate(-1.000000) translate(-210.464064, -249.894298) "></path>
                </g>
                <g id="eye-left" transform="translate(263.888550, 183.603101)">
                    <mask id="mask-6" fill="white">
                        <use xlink:href="#path-5"></use>
                    </mask>
                    <use id="Mask" fill="#FFFFFF" xlink:href="#path-5"></use>
                    <ellipse id="Oval-3" fill="#000000" mask="url(#mask-6)" cx="5.80147775" cy="4.24286314" rx="4.26421959" ry="4.2693381"></ellipse>
                </g>
                <g id="Oval-3-Copy-2" transform="translate(293.320611, 183.603101)">
                    <mask id="mask-8" fill="white">
                        <use xlink:href="#path-7"></use>
                    </mask>
                    <use id="Mask" fill="#FFFFFF" xlink:href="#path-7"></use>
                    <ellipse id="Oval-3" fill="#000000" mask="url(#mask-8)" cx="5.80147775" cy="4.24286314" rx="4.26421959" ry="4.2693381"></ellipse>
                </g>
            </g>
            <g id="feather-squished-a" transform="translate(519.999582, 527.262537) rotate(44.000000) translate(-519.999582, -527.262537) translate(272.999582, 242.762537)">
                <g id="feather-body">
                    <path d="M234.578831,568.497797 C264.461857,568.497797 279.825332,515.58429 294.209634,451.090154 C294.896425,448.010828 255.80134,475.125355 256.472145,471.965464 C257.14295,468.805574 300.336271,441.949867 301.010463,438.624871 C310.000547,394.287334 317.74324,343.25762 326.505411,293.323108 C332.904374,256.856225 347.710787,194.067877 338.62378,209.272875 C323.140197,235.18106 293.188788,245.083429 296.783415,240.835131 C298.970507,238.250323 297.286107,212.555282 305.961203,206.550041 C314.636298,200.544801 337.624318,190.97248 337.705016,189.170953 C338.170817,178.772323 338.808432,156.039021 339.265771,145.835505 C340.353217,121.57391 339.796209,74.4993181 333.267361,42.8013439 C332.781183,40.440917 298.247957,71.6884329 297.703051,69.424155 C296.965446,66.3591459 329.411706,37.391912 328.561562,34.5441429 C322.603755,14.5869818 313.812816,0.544295332 301.212902,0.544295332 C268.032986,0.544295332 217.021863,58.3260249 184.137452,139.212937 C183.241478,141.416794 231.349156,225.032526 230.480822,227.269986 C229.624904,229.475455 179.792573,150.302184 178.964913,152.538948 C178.143692,154.758313 231.120827,234.909886 230.328793,237.158744 C229.536758,239.407602 178.907823,164.419623 177.780499,167.884894 C165.030243,207.077796 152.226778,251.858178 152.226778,295.624525 C152.226778,329.378896 153.719555,361.64625 156.61936,391.411736 C157.069547,396.032751 215.635031,455.604422 215.635031,455.604422 C215.635031,455.604422 159.702995,405.870809 159.99332,408.196151 C171.561727,500.852526 196.684146,568.497797 234.578831,568.497797 Z" id="Oval" fill="#E9F4F5" transform="translate(246.861721, 284.521046) rotate(37.000000) translate(-246.861721, -284.521046) "></path>
                    <path d="M423.449266,118.407135 C423.449266,118.407135 278.191489,232.402568 220.002159,296.658365 C161.812829,360.914162 16.5550524,567.721671 16.5550524,567.721671" id="Path-2" stroke="#F3F5E9" stroke-width="12"></path>
                    <path d="M432.05606,119.713344 C432.05606,119.713344 304.802696,216.860831 253.825817,271.619948 C202.848939,326.379065 75.5955746,502.621474 75.5955746,502.621474" id="Path-2-Copy" stroke="#E9F4F5" stroke-width="13" transform="translate(253.825817, 311.167409) rotate(-1.000000) translate(-253.825817, -311.167409) "></path>
                </g>
                <g id="Oval-3" transform="translate(324.345203, 226.388064)">
                    <mask id="mask-10" fill="white">
                        <use xlink:href="#path-9"></use>
                    </mask>
                    <use id="Mask" fill="#FFFFFF" xlink:href="#path-9"></use>
                    <ellipse fill="#000000" mask="url(#mask-10)" cx="8.73163548" cy="3.49634075" rx="6.11214484" ry="6.11859632"></ellipse>
                </g>
                <g id="Oval-3-Copy" transform="translate(356.652254, 222.017638)">
                    <mask id="mask-12" fill="white">
                        <use xlink:href="#path-11"></use>
                    </mask>
                    <use id="Mask" fill="#FFFFFF" xlink:href="#path-11"></use>
                    <ellipse fill="#000000" mask="url(#mask-12)" cx="11.3511261" cy="3.49634075" rx="6.11214484" ry="6.11859632"></ellipse>
                </g>
            </g>
            <g id="egg-happy-on-feathers" transform="translate(479.331298, 271.000000) scale(-1, 1) translate(-479.331298, -271.000000) translate(288.331298, 0.000000)">
                <path d="M190.64411,541.455369 C326.123197,541.455369 391.19583,418.952019 380.528185,281.055394 C369.86054,143.158769 295.514189,0.294926967 190.64411,0.294926967 C85.7740319,0.294926967 7.16062275,143.158769 0.760035969,281.055394 C-5.64055081,418.952019 55.1650236,541.455369 190.64411,541.455369 Z" id="small-egg-copy-3" fill="url(#radialGradient-13)"></path>
                <g id="Oval-3" transform="translate(196.357252, 162.733344)">
                    <mask id="mask-15" fill="white">
                        <use xlink:href="#path-14"></use>
                    </mask>
                    <use id="Mask" fill="#FFFFFF" transform="translate(34.985887, 32.133786) rotate(-8.000000) translate(-34.985887, -32.133786) " xlink:href="#path-14"></use>
                    <ellipse fill="#000000" mask="url(#mask-15)" cx="40.2635258" cy="43.1798261" rx="21.1457777" ry="21.0950631"></ellipse>
                </g>
                <g id="Oval-3-Copy" transform="translate(263.216937, 138.002370)">
                    <mask id="mask-17" fill="white">
                        <use xlink:href="#path-16"></use>
                    </mask>
                    <use id="Mask" fill="#FFFFFF" transform="translate(35.235471, 30.047972) rotate(-8.000000) translate(-35.235471, -30.047972) " xlink:href="#path-16"></use>
                    <ellipse fill="#000000" mask="url(#mask-17)" cx="39.861999" cy="43.8021564" rx="21.1457777" ry="21.0950631"></ellipse>
                </g>
                <g id="smile" transform="translate(210.433349, 188.243538)" stroke="#D95A5A" stroke-width="3">
                    <path d="M86.6039361,93.0091434 C114.965985,93.0091434 137.957968,50.8190171 137.957968,50.8190171 C137.957968,50.8190171 114.965985,73.3200689 86.6039361,73.3200689 C58.2418876,73.3200689 35.2499046,50.8190171 35.2499046,50.8190171 C35.2499046,50.8190171 58.2418876,93.0091434 86.6039361,93.0091434 Z" id="Oval" fill="#FFFFFF" transform="translate(86.603936, 71.914080) rotate(-24.000000) translate(-86.603936, -71.914080) "></path>
                    <path d="M137.976134,-3.42543098 C131.302711,-3.42543098 125.892833,2.87095666 125.892833,10.6379444 C125.892833,18.4049322 131.302711,24.7013199 137.976134,24.7013199 L137.976134,24.7013199" id="Oval-4" transform="translate(131.934484, 10.637944) rotate(-70.000000) translate(-131.934484, -10.637944) "></path>
                    <path d="M17.1249523,44.7918562 C10.4515291,44.7918562 5.04165076,51.0882439 5.04165076,58.8552316 C5.04165076,66.6222194 10.4515291,72.9186071 17.1249523,72.9186071 L17.1249523,72.9186071" id="Oval-4-Copy" transform="translate(11.083302, 58.855232) scale(-1, 1) rotate(-23.000000) translate(-11.083302, -58.855232) "></path>
                </g>
            </g>
            <g id="feathers-squished-copy" transform="translate(402.200854, 603.095604) scale(-1, 1) rotate(86.000000) translate(-402.200854, -603.095604) translate(80.700854, 281.095604)">
                <g id="feather-squished-c" transform="translate(218.756787, 334.356286) scale(-1, 1) rotate(309.000000) translate(-218.756787, -334.356286) translate(75.256787, 169.356286)">
                    <g id="feather-body" transform="translate(-0.000000, -0.000000)">
                        <path d="M137.103868,329.885704 C154.458521,329.885704 163.380902,299.152109 171.734626,261.692171 C172.133482,259.903616 149.4289,275.652466 149.818472,273.817116 C150.208044,271.981766 175.292688,256.383246 175.684226,254.451998 C180.905243,228.699558 185.401834,199.060121 190.49049,170.056806 C194.206705,148.875854 196.127552,140.448015 190.195912,136.95384 C186.495961,134.774296 180.037092,137.253871 177.14161,135.309378 C174.246129,133.364884 170.275456,123.185002 171.696489,121.505343 C172.96665,120.004017 178.030592,115.06716 184.733916,114.362612 C191.43724,113.658064 195.490678,120.045923 195.537544,118.999547 C195.808059,112.959742 197.635504,90.3184968 197.901105,84.3920189 C198.532642,70.3002285 198.209158,42.958033 194.417512,24.5469926 C194.135162,23.1759928 174.079894,41.3253948 173.763438,40.010241 C173.335072,38.2300009 192.178329,21.4050483 191.684605,19.750987 C188.224592,8.15932833 183.119229,0.00295636543 175.801794,0.00295636543 C161.663272,0.00295636543 141.949726,18.0710406 124.910092,46.2512088 C122.873522,49.6192914 140.745223,92.2397679 140.745223,92.2397679 C140.745223,92.2397679 116.533388,61.3484211 115.369133,63.7073952 C112.713786,69.0875715 110.180722,74.7131017 107.809895,80.5454522 C107.289556,81.8255118 105.286594,86.9863865 104.805929,88.2855599 C104.329002,89.5746272 104.772773,95.1861768 104.118077,97.1989 C96.7133294,119.963197 89.2776812,145.972853 89.2776812,171.393531 C89.2776812,190.998982 90.1446152,209.740734 91.8286853,227.029333 C92.0901329,229.713343 126.102203,264.31418 126.102203,264.31418 C126.102203,264.31418 93.6195151,235.427554 93.7881224,236.778175 C100.506507,290.595502 115.096423,329.885704 137.103868,329.885704 Z" id="Oval" fill="#E1F6F7" transform="translate(143.717055, 164.944330) rotate(37.000000) translate(-143.717055, -164.944330) "></path>
                        <path d="M246.68617,68.7740649 C246.68617,68.7740649 162.327306,134.985694 128.533688,172.307198 C94.7400699,209.628702 10.3812057,329.748095 10.3812057,329.748095" id="Path-2" stroke="#F3F5E9" stroke-width="9"></path>
                        <path d="M252.068353,69.1562029 C252.068353,69.1562029 178.165602,125.58209 148.560636,157.387665 C118.955669,189.19324 45.0529185,291.559596 45.0529185,291.559596" id="Path-2-Copy" stroke="#E1F6F7" stroke-width="4" transform="translate(148.560636, 180.357900) rotate(-1.000000) translate(-148.560636, -180.357900) "></path>
                    </g>
                    <g id="eye-left" transform="translate(189.000000, 129.000000)">
                        <mask id="mask-19" fill="white">
                            <use xlink:href="#path-18"></use>
                        </mask>
                        <use id="Mask" fill="#FFFFFF" xlink:href="#path-18"></use>
                        <ellipse id="Oval-3" fill="#000000" mask="url(#mask-19)" cx="10.8585793" cy="9.8223433" rx="4.04500008" ry="4.04978706"></ellipse>
                    </g>
                    <g id="eye-right" transform="translate(210.000000, 125.000000)">
                        <mask id="mask-21" fill="white">
                            <use xlink:href="#path-20"></use>
                        </mask>
                        <use id="Mask" fill="#FFFFFF" xlink:href="#path-20"></use>
                        <ellipse id="Oval-3" fill="#000000" mask="url(#mask-21)" cx="11.7248533" cy="9.49845672" rx="4.04500008" ry="4.04978706"></ellipse>
                    </g>
                </g>
                <g id="feather-squished-b-" transform="translate(291.811135, 218.556312) scale(1, -1) rotate(-219.000000) translate(-291.811135, -218.556312) translate(148.311135, 53.556312)">
                    <g id="feather-body" transform="translate(0.000000, 0.000000)">
                        <path d="M137.071346,329.982904 C154.425998,329.982904 163.348379,299.249309 171.702103,261.789371 C172.100959,260.000815 149.396378,275.749666 149.78595,273.914316 C150.175522,272.078966 175.260165,256.480446 175.651704,254.549198 C177.010864,247.845197 178.320931,240.877778 179.60513,233.726739 C180.205025,230.386234 155.104759,243.15984 155.104759,243.15984 C155.104759,243.15984 182.581748,216.660985 183.17492,213.154351 C185.563989,199.03098 187.938403,184.514518 190.457967,170.154006 C194.174183,148.973054 195.17736,123.629422 195.17736,123.629422 C195.17736,123.629422 189.153691,132.328435 185.15725,134.354515 C181.16081,136.380595 165.794938,137.420033 167.334024,135.600836 C168.604184,134.09951 178.933304,120.883932 183.97139,117.395926 C189.009476,113.90792 198.355854,117.433165 198.402719,116.386789 C198.673235,110.346984 197.602982,90.4156966 197.868582,84.4892188 C198.500119,70.3974283 198.176636,43.0552328 194.384989,24.6441924 C194.102639,23.2731926 174.047371,41.4225946 173.730915,40.1074408 C173.302549,38.3272007 192.145806,21.5022481 191.652083,19.8481868 C188.192069,8.25652814 183.086707,0.100156176 175.769271,0.100156176 C156.499941,0.100156176 126.875087,33.6613468 107.777372,80.642652 C107.257033,81.9227116 135.195703,130.48899 134.691416,131.788567 C134.194339,133.069563 105.254072,87.0835863 104.773406,88.3827597 C104.296479,89.671827 104.74025,95.2833766 104.085554,97.2960998 C96.6808068,120.060397 89.2451586,146.070053 89.2451586,171.490731 C89.2451586,191.096182 90.1120926,209.837934 91.7961627,227.126533 C92.0576103,229.810543 126.069681,264.41138 126.069681,264.41138 C126.069681,264.41138 93.5869925,235.524753 93.7555998,236.875375 C100.473985,290.692702 115.063901,329.982904 137.071346,329.982904 Z" id="Oval" fill="#DAF1F3" transform="translate(143.846043, 165.041530) rotate(37.000000) translate(-143.846043, -165.041530) "></path>
                        <path d="M246.68617,68.7740649 C246.68617,68.7740649 162.327306,134.985694 128.533688,172.307198 C94.7400699,209.628702 10.3812057,329.748095 10.3812057,329.748095" id="Path-2" stroke="#F3F5E9" stroke-width="10"></path>
                        <path d="M258.84118,65.9559 C258.84118,65.9559 181.759605,122.960691 150.881222,155.092577 C120.00284,187.224463 42.9212646,290.641052 42.9212646,290.641052" id="Path-2-Copy" stroke="#DAF1F3" stroke-width="9" transform="translate(150.881222, 178.298476) rotate(-1.000000) translate(-150.881222, -178.298476) "></path>
                    </g>
                    <g id="eye-left" transform="translate(189.000000, 131.000000)">
                        <mask id="mask-23" fill="white">
                            <use xlink:href="#path-22"></use>
                        </mask>
                        <use id="Mask" fill="#FFFFFF" xlink:href="#path-22"></use>
                        <ellipse id="Oval-3" fill="#000000" mask="url(#mask-23)" cx="9.43159477" cy="6.02604046" rx="3.04255319" ry="3.04615385"></ellipse>
                    </g>
                    <g id="Oval-3-Copy-2" transform="translate(210.000000, 131.000000)">
                        <mask id="mask-25" fill="white">
                            <use xlink:href="#path-24"></use>
                        </mask>
                        <use id="Mask" fill="#FFFFFF" xlink:href="#path-24"></use>
                        <ellipse id="Oval-3" fill="#000000" mask="url(#mask-25)" cx="10.8380611" cy="5.87821489" rx="3.04255319" ry="3.04615385"></ellipse>
                    </g>
                </g>
                <g id="feather-squished-a" transform="translate(374.655220, 381.109882) scale(-1, 1) rotate(-54.000000) translate(-374.655220, -381.109882) translate(198.155220, 178.109882)">
                    <g id="feather-body" transform="translate(0.000000, -0.000000)">
                        <path d="M168.087292,405.620662 C189.409059,405.620662 200.371016,367.86711 210.634325,321.850829 C211.124355,319.653743 183.229714,338.999838 183.708339,336.745271 C184.186963,334.490703 215.005727,315.329275 215.486768,312.956904 C221.901262,281.322268 227.425732,244.912793 233.677608,209.28474 C238.243317,183.26578 248.807805,138.466571 242.324157,149.315271 C231.276502,167.800645 209.905944,174.865942 212.470737,171.834801 C214.031244,169.990551 212.829412,151.657253 219.019159,147.372541 C225.208905,143.087828 241.611033,136.258019 241.668612,134.972638 C242.000964,127.553262 242.455908,111.333151 242.782222,104.052988 C243.558123,86.7424468 243.160694,53.1549339 238.502311,30.5385695 C238.155419,28.8544153 213.5157,51.1493796 213.126905,49.5338274 C212.600618,47.346957 235.751272,26.6789638 235.144688,24.6470931 C230.893747,10.407747 224.621345,0.388352311 215.63121,0.388352311 C191.957087,0.388352311 155.560261,41.6153607 132.096984,99.3278145 C131.4577,100.900256 165.782894,160.559712 165.163332,162.156129 C164.552628,163.729722 128.996879,107.239943 128.406338,108.835865 C127.82039,110.419372 165.61998,167.607164 165.054858,169.211714 C164.489735,170.816265 128.365603,117.312673 127.561249,119.785129 C118.463844,147.749091 109.328475,179.699695 109.328475,210.926791 C109.328475,235.010385 110.393582,258.032999 112.462615,279.270542 C112.783827,282.567615 154.570747,325.071739 154.570747,325.071739 C154.570747,325.071739 114.662812,289.587027 114.869962,291.246148 C123.124108,357.356061 141.049146,405.620662 168.087292,405.620662 Z" id="Oval" fill="#E9F4F5" transform="translate(176.851228, 203.004507) rotate(37.000000) translate(-176.851228, -203.004507) "></path>
                        <path d="M302.847788,84.4829667 C302.847788,84.4829667 199.205257,165.818204 157.686726,211.664431 C116.168195,257.510657 12.5256637,405.0669 12.5256637,405.0669" id="Path-2" stroke="#F3F5E9" stroke-width="12"></path>
                        <path d="M308.988801,85.4149415 C308.988801,85.4149415 218.192555,154.729244 181.820164,193.799631 C145.447772,232.870018 54.6515266,358.618198 54.6515266,358.618198" id="Path-2-Copy" stroke="#E9F4F5" stroke-width="13" transform="translate(181.820164, 222.016570) rotate(-1.000000) translate(-181.820164, -222.016570) "></path>
                    </g>
                    <g id="Oval-3" transform="translate(232.136283, 161.526882)">
                        <mask id="mask-27" fill="white">
                            <use xlink:href="#path-26"></use>
                        </mask>
                        <use id="Mask" fill="#FFFFFF" xlink:href="#path-26"></use>
                        <ellipse fill="#000000" mask="url(#mask-27)" cx="13.2835115" cy="12.2028276" rx="4.36106195" ry="4.3655914"></ellipse>
                    </g>
                    <g id="Oval-3-Copy" transform="translate(255.187611, 158.408602)">
                        <mask id="mask-29" fill="white">
                            <use xlink:href="#path-28"></use>
                        </mask>
                        <use id="Mask" fill="#FFFFFF" xlink:href="#path-28"></use>
                        <ellipse fill="#000000" mask="url(#mask-29)" cx="13.9769676" cy="10.5847936" rx="4.36106195" ry="4.3655914"></ellipse>
                    </g>
                </g>
            </g>
        </g>
        <g id="feathers-happy-copy" transform="translate(426.483303, -373.929532) rotate(-48.000000) translate(-426.483303, 373.929532) translate(178.483303, -657.929532)"></g>
    </g>
</svg>