<?xml version="1.0" encoding="UTF-8" standalone="no"?>
<svg width="383px" height="439px" viewBox="0 0 383 439" version="1.1" xmlns="http://www.w3.org/2000/svg" xmlns:xlink="http://www.w3.org/1999/xlink">
    <!-- Generator: Sketch 42 (36781) - http://www.bohemiancoding.com/sketch -->
    <title>feathers happy copy</title>
    <desc>Created with Sketch.</desc>
    <defs>
        <ellipse id="path-1" cx="11.3998315" cy="6.42990541" rx="11.2462067" ry="5.90913457"></ellipse>
        <ellipse id="path-3" cx="11.3998315" cy="6.42990541" rx="11.2462067" ry="5.90913457"></ellipse>
        <path d="M9.05971114,7.03079107 C13.9784068,7.03079107 17.9657975,7.22378095 17.9657975,4.83980036 C17.9657975,2.45581977 13.9784068,0.523221661 9.05971114,0.523221661 C4.14101547,0.523221661 0.153624799,2.45581977 0.153624799,4.83980036 C0.153624799,7.22378095 4.14101547,7.03079107 9.05971114,7.03079107 Z" id="path-5"></path>
        <path d="M9.05971114,7.03079107 C13.9784068,7.03079107 17.9657975,7.22378095 17.9657975,4.83980036 C17.9657975,2.45581977 13.9784068,0.523221661 9.05971114,0.523221661 C4.14101547,0.523221661 0.153624799,2.45581977 0.153624799,4.83980036 C0.153624799,7.22378095 4.14101547,7.03079107 9.05971114,7.03079107 Z" id="path-7"></path>
    </defs>
    <g id="Page-1" stroke="none" stroke-width="1" fill="none" fill-rule="evenodd">
        <g id="feathers-squished" transform="translate(307.000000, 167.000000)">
            <g id="feather-squished-c" transform="translate(301.936726, 443.133559) rotate(239.000000) translate(-301.936726, -443.133559) translate(101.436726, 211.633559)">
                <g id="feather-body" transform="translate(-0.000000, 0.000000)"></g>
            </g>
            <g id="feathers-squished-copy" transform="translate(402.200854, 603.095604) scale(-1, 1) rotate(86.000000) translate(-402.200854, -603.095604) translate(80.700854, 281.095604)"></g>
        </g>
        <g id="feathers-happy-copy" transform="translate(193.106041, 203.830712) rotate(-48.000000) translate(-193.106041, -203.830712) translate(-81.893959, -102.669288)">
            <g id="feather-happy-c" transform="translate(205.557806, 219.488662) rotate(-18.000000) translate(-205.557806, -219.488662) translate(48.057806, 39.988662)">
                <g id="feather-body" transform="translate(-0.000000, -0.000000)">
                    <path d="M149.460753,354.790623 C169.780796,354.790623 180.227746,322.127143 190.008871,282.314946 C190.475879,280.414079 163.891764,297.151863 164.347902,295.201264 C164.80404,293.250665 194.174899,276.672651 194.63334,274.620133 C200.746473,247.250594 206.011397,215.749978 211.969551,184.925429 C216.320757,162.414441 226.19584,119.579116 219.218048,122.797272 C201.79422,130.833137 187.519922,135.947698 189.964218,133.325226 C191.451411,131.729625 199.330407,129.441006 205.229351,125.733974 C211.128296,122.026942 219.686324,114.045812 219.741198,112.93373 C220.057936,106.514662 220.335435,100.180033 220.646419,93.8814077 C221.385867,78.9047374 221.007109,49.8456161 216.567584,30.2784729 C216.236989,28.8213825 192.754875,48.110458 192.384346,46.7127205 C191.882785,44.8206919 213.945792,26.9392333 213.367705,25.1813069 C209.316479,12.8617617 203.338763,4.19321848 194.770996,4.19321848 C178.216624,4.19321848 155.134623,23.39587 135.183425,53.3455836 C132.798866,56.9251615 153.724306,102.221948 153.724306,102.221948 C153.724306,102.221948 125.375392,69.3908102 124.012201,71.8979137 C120.903135,77.6159328 117.937246,83.5947125 115.161316,89.7932997 C114.552066,91.1537393 112.206858,96.638686 111.644061,98.0194397 C111.085642,99.3894526 111.60524,105.353374 110.838676,107.492484 C102.168679,131.686242 93.4625007,159.329149 93.4625007,186.346093 C93.4625007,207.182648 94.4775679,227.10127 96.4493952,245.475489 C96.7555163,248.328039 136.579232,285.101601 136.579232,285.101601 C136.579232,285.101601 98.5462242,254.401067 98.7436414,255.8365 C106.609997,313.033232 123.692894,354.790623 149.460753,354.790623 Z" id="Oval" fill="#E1F6F7" transform="translate(157.551891, 179.491921) rotate(37.000000) translate(-157.551891, -179.491921) "></path>
                    <path d="M277.837459,77.0926634 C277.837459,77.0926634 179.064188,147.461986 139.496251,187.127056 C99.9283143,226.792127 1.15504324,354.454296 1.15504324,354.454296" id="Path-2" stroke="#F3F5E9" stroke-width="9"></path>
                    <path d="M284.139296,77.4987974 C284.139296,77.4987974 197.608775,137.467891 162.945205,171.270666 C128.281636,205.07344 41.7511148,313.867789 41.7511148,313.867789" id="Path-2-Copy" stroke="#E1F6F7" stroke-width="4" transform="translate(162.945205, 195.683293) rotate(-1.000000) translate(-162.945205, -195.683293) "></path>
                </g>
                <g id="eye-left" transform="translate(210.294447, 141.100426)">
                    <mask id="mask-2" fill="white">
                        <use xlink:href="#path-1"></use>
                    </mask>
                    <use id="Mask" fill="#FFFFFF" xlink:href="#path-1"></use>
                    <ellipse id="Oval-3" fill="#000000" mask="url(#mask-2)" cx="16.5303769" cy="8.80090947" rx="4.73616961" ry="4.30408938"></ellipse>
                </g>
                <g id="eye-right" transform="translate(234.882719, 136.849250)">
                    <mask id="mask-4" fill="white">
                        <use xlink:href="#path-3"></use>
                    </mask>
                    <use id="Mask" fill="#FFFFFF" xlink:href="#path-3"></use>
                    <ellipse id="Oval-3" fill="#000000" mask="url(#mask-4)" cx="10.9906661" cy="10.5195553" rx="4.73616961" ry="4.30408938"></ellipse>
                </g>
            </g>
            <g id="feather-happy-b" transform="translate(333.117514, 385.250471) rotate(24.000000) translate(-333.117514, -385.250471) translate(176.117514, 206.250471)">
                <g id="feather-body" transform="translate(0.000000, 0.000000)">
                    <path d="M149.530819,354.600547 C169.850862,354.600547 180.297812,321.937066 190.078937,282.124869 C190.545945,280.224003 163.96183,296.961786 164.417968,295.011188 C164.874107,293.060589 194.244965,276.482575 194.703406,274.430056 C196.294807,267.305085 197.828725,259.900154 199.332355,252.300072 C200.034754,248.749804 170.645603,262.325515 170.645603,262.325515 C170.645603,262.325515 202.817587,234.162692 203.512115,230.435862 C206.309404,215.425628 209.089536,199.997619 212.039617,184.735353 C216.390823,162.224364 219.288114,122.607196 219.288114,122.607196 C219.288114,122.607196 217.401343,128.650186 212.722031,130.803492 C208.042718,132.956797 180.547287,140.300952 182.349357,138.367521 C183.836549,136.77192 204.4654,128.138603 210.364344,124.431571 C216.263289,120.724539 219.75639,113.855735 219.811264,112.743654 C220.128002,106.324585 220.405501,99.9899563 220.716485,93.6913312 C221.455933,78.7146609 221.077175,49.6555396 216.63765,30.0883964 C216.307055,28.631306 192.824941,47.9203816 192.454412,46.522644 C191.952851,44.6306155 214.015858,26.7491568 213.437772,24.9912305 C209.386545,12.6716852 203.408829,4.00314201 194.841062,4.00314201 C172.27918,4.00314201 137.592324,39.671774 115.231382,89.6032232 C114.622132,90.9636628 147.334685,142.579612 146.74423,143.960795 C146.162218,145.322229 112.276924,96.4486095 111.714127,97.8293632 C111.155708,99.1993761 111.675306,105.163297 110.908742,107.302408 C102.238745,131.496166 93.5325668,159.139073 93.5325668,186.156016 C93.5325668,206.992572 94.5476339,226.911193 96.5194612,245.285412 C96.8255824,248.137962 136.649298,284.911524 136.649298,284.911524 C136.649298,284.911524 98.6162903,254.210991 98.8137075,255.646423 C106.680063,312.843156 123.76296,354.600547 149.530819,354.600547 Z" id="Oval" fill="#DAF1F3" transform="translate(157.274001, 179.301844) rotate(37.000000) translate(-157.274001, -179.301844) "></path>
                    <path d="M277.837459,77.0926634 C277.837459,77.0926634 179.064188,147.461986 139.496251,187.127056 C99.9283143,226.792127 1.15504324,354.454296 1.15504324,354.454296" id="Path-2" stroke="#F3F5E9" stroke-width="10"></path>
                    <path d="M292.069396,74.0975347 C292.069396,74.0975347 201.816886,134.681885 165.662311,168.83146 C129.507736,202.981036 39.255225,312.891566 39.255225,312.891566" id="Path-2-Copy" stroke="#DAF1F3" stroke-width="9" transform="translate(165.662311, 193.494550) rotate(-1.000000) translate(-165.662311, -193.494550) "></path>
                </g>
                <g id="eye-left" transform="translate(210.294447, 143.226014)">
                    <mask id="mask-6" fill="white">
                        <use xlink:href="#path-5"></use>
                    </mask>
                    <use id="Mask" fill="#FFFFFF" xlink:href="#path-5"></use>
                    <ellipse id="Oval-3" fill="#000000" mask="url(#mask-6)" cx="11.6696741" cy="3.43755144" rx="3.56243454" ry="3.23743403"></ellipse>
                </g>
                <g id="Oval-3-Copy-2" transform="translate(234.882719, 143.226014)">
                    <mask id="mask-8" fill="white">
                        <use xlink:href="#path-7"></use>
                    </mask>
                    <use id="Mask" fill="#FFFFFF" xlink:href="#path-7"></use>
                    <ellipse id="Oval-3" fill="#000000" mask="url(#mask-8)" cx="11.6696741" cy="3.43755144" rx="3.56243454" ry="3.23743403"></ellipse>
                </g>
            </g>
            <g id="feather-happy-a" transform="translate(145.871372, 123.221310)">
                <g id="feather-body" transform="translate(-0.000000, 0.000000)">
                    <path d="M149.460753,354.790623 C169.780796,354.790623 180.227746,322.127143 190.008871,282.314946 C190.475879,280.414079 163.891764,297.151863 164.347902,295.201264 C164.80404,293.250665 194.174899,276.672651 194.63334,274.620133 C200.746473,247.250594 206.011397,215.749978 211.969551,184.925429 C216.320757,162.414441 226.19584,119.579116 219.218048,122.797272 C201.79422,130.833137 187.519922,135.947698 189.964218,133.325226 C191.451411,131.729625 199.330407,129.441006 205.229351,125.733974 C211.128296,122.026942 219.686324,114.045812 219.741198,112.93373 C220.057936,106.514662 220.335435,100.180033 220.646419,93.8814077 C221.385867,78.9047374 221.007109,49.8456161 216.567584,30.2784729 C216.236989,28.8213825 192.754875,48.110458 192.384346,46.7127205 C191.882785,44.8206919 213.945792,26.9392333 213.367705,25.1813069 C209.316479,12.8617617 203.338763,4.19321848 194.770996,4.19321848 C172.209114,4.19321848 137.522258,39.8618505 115.161316,89.7932997 C114.552066,91.1537393 147.264619,142.769688 146.674164,144.150871 C146.092152,145.512306 112.206858,96.638686 111.644061,98.0194397 C111.085642,99.3894526 147.109359,148.866977 146.570786,150.255196 C146.032214,151.643415 111.60524,105.353374 110.838676,107.492484 C102.168679,131.686242 93.4625007,159.329149 93.4625007,186.346093 C93.4625007,207.182648 94.4775679,227.10127 96.4493952,245.475489 C96.7555163,248.328039 136.579232,285.101601 136.579232,285.101601 C136.579232,285.101601 98.5462242,254.401067 98.7436414,255.8365 C106.609997,313.033232 123.692894,354.790623 149.460753,354.790623 Z" id="Oval" fill="#E9F4F5" transform="translate(157.551891, 179.491921) rotate(37.000000) translate(-157.551891, -179.491921) "></path>
                    <path d="M277.837459,77.0926634 C277.837459,77.0926634 179.064188,147.461986 139.496251,187.127056 C99.9283143,226.792127 1.15504324,354.454296 1.15504324,354.454296" id="Path-2" stroke="#F3F5E9" stroke-width="16"></path>
                    <path d="M283.09622,79.517703 C283.09622,79.517703 196.5657,139.486797 161.90213,173.289571 C127.23856,207.092346 40.7080396,315.886695 40.7080396,315.886695" id="Path-2-Copy" stroke="#E9F4F5" stroke-width="16" transform="translate(161.902130, 197.702199) rotate(-1.000000) translate(-161.902130, -197.702199) "></path>
                </g>
                <g id="eye-left" transform="translate(210.448072, 143.749235)">
                    <ellipse id="Oval-2" fill="#FFFFFF" cx="8.90608634" cy="4.3165787" rx="8.90608634" ry="4.3165787"></ellipse>
                    <ellipse id="Oval-3" fill="#000000" cx="12.4685209" cy="4.85615104" rx="3.56243454" ry="3.23743403"></ellipse>
                </g>
                <g id="eye-right" transform="translate(234.791375, 141.051374)">
                    <ellipse id="Oval-2-Copy" fill="#FFFFFF" cx="8.90608634" cy="4.3165787" rx="8.90608634" ry="4.3165787"></ellipse>
                    <ellipse id="Oval-3-Copy" fill="#000000" cx="12.4685209" cy="4.85615104" rx="3.56243454" ry="3.23743403"></ellipse>
                </g>
            </g>
        </g>
    </g>
</svg>