<?xml version="1.0" encoding="UTF-8" standalone="no"?>
<svg width="501px" height="501px" viewBox="0 0 501 501" version="1.1" xmlns="http://www.w3.org/2000/svg" xmlns:xlink="http://www.w3.org/1999/xlink">
    <!-- Generator: Sketch 42 (36781) - http://www.bohemiancoding.com/sketch -->
    <title>feathers</title>
    <desc>Created with Sketch.</desc>
    <defs>
        <rect id="path-1" x="103.480769" y="103.311081" width="500" height="500"></rect>
        <mask id="mask-2" maskContentUnits="userSpaceOnUse" maskUnits="objectBoundingBox" x="0" y="0" width="500" height="500" fill="white">
            <use xlink:href="#path-1"></use>
        </mask>
        <path d="M6.25032442,6.18880528 C9.64374869,6.18880528 12.3946626,6.3586833 12.3946626,4.26020085 C12.3946626,2.1617184 9.64374869,0.460562254 6.25032442,0.460562254 C2.85690015,0.460562254 0.105986253,2.1617184 0.105986253,4.26020085 C0.105986253,6.3586833 2.85690015,6.18880528 6.25032442,6.18880528 Z" id="path-3"></path>
        <path d="M6.25032442,6.18880528 C9.64374869,6.18880528 12.3946626,6.3586833 12.3946626,4.26020085 C12.3946626,2.1617184 9.64374869,0.460562254 6.25032442,0.460562254 C2.85690015,0.460562254 0.105986253,2.1617184 0.105986253,4.26020085 C0.105986253,6.3586833 2.85690015,6.18880528 6.25032442,6.18880528 Z" id="path-5"></path>
        <ellipse id="path-7" cx="7.86478113" cy="6.30977291" rx="7.75879488" ry="5.79873183"></ellipse>
        <ellipse id="path-9" cx="7.86478113" cy="6.30977291" rx="7.75879488" ry="5.79873183"></ellipse>
        <path d="M6.25032442,6.18880528 C9.64374869,6.18880528 12.3946626,6.3586833 12.3946626,4.26020085 C12.3946626,2.1617184 9.64374869,0.460562254 6.25032442,0.460562254 C2.85690015,0.460562254 0.105986253,2.1617184 0.105986253,4.26020085 C0.105986253,6.3586833 2.85690015,6.18880528 6.25032442,6.18880528 Z" id="path-11"></path>
        <path d="M6.25032442,6.18880528 C9.64374869,6.18880528 12.3946626,6.3586833 12.3946626,4.26020085 C12.3946626,2.1617184 9.64374869,0.460562254 6.25032442,0.460562254 C2.85690015,0.460562254 0.105986253,2.1617184 0.105986253,4.26020085 C0.105986253,6.3586833 2.85690015,6.18880528 6.25032442,6.18880528 Z" id="path-13"></path>
        <path d="M6.25032442,6.18880528 C9.64374869,6.18880528 12.3946626,6.3586833 12.3946626,4.26020085 C12.3946626,2.1617184 9.64374869,0.460562254 6.25032442,0.460562254 C2.85690015,0.460562254 0.105986253,2.1617184 0.105986253,4.26020085 C0.105986253,6.3586833 2.85690015,6.18880528 6.25032442,6.18880528 Z" id="path-15"></path>
        <path d="M6.25032442,6.18880528 C9.64374869,6.18880528 12.3946626,6.3586833 12.3946626,4.26020085 C12.3946626,2.1617184 9.64374869,0.460562254 6.25032442,0.460562254 C2.85690015,0.460562254 0.105986253,2.1617184 0.105986253,4.26020085 C0.105986253,6.3586833 2.85690015,6.18880528 6.25032442,6.18880528 Z" id="path-17"></path>
        <path d="M6.25032442,6.18880528 C9.64374869,6.18880528 12.3946626,6.3586833 12.3946626,4.26020085 C12.3946626,2.1617184 9.64374869,0.460562254 6.25032442,0.460562254 C2.85690015,0.460562254 0.105986253,2.1617184 0.105986253,4.26020085 C0.105986253,6.3586833 2.85690015,6.18880528 6.25032442,6.18880528 Z" id="path-19"></path>
        <path d="M6.25032442,6.18880528 C9.64374869,6.18880528 12.3946626,6.3586833 12.3946626,4.26020085 C12.3946626,2.1617184 9.64374869,0.460562254 6.25032442,0.460562254 C2.85690015,0.460562254 0.105986253,2.1617184 0.105986253,4.26020085 C0.105986253,6.3586833 2.85690015,6.18880528 6.25032442,6.18880528 Z" id="path-21"></path>
        <ellipse id="path-23" cx="7.86478113" cy="5.98627752" rx="7.75879488" ry="5.50143698"></ellipse>
        <ellipse id="path-25" cx="7.86478113" cy="5.98627752" rx="7.75879488" ry="5.50143698"></ellipse>
    </defs>
    <g id="Page-1" stroke="none" stroke-width="1" fill="none" fill-rule="evenodd">
        <g id="feathers" transform="translate(250.251146, 250.124437) rotate(-48.000000) translate(-250.251146, -250.124437) translate(-103.248854, -103.375563)">
            <use id="Rectangle-Copy-3" stroke="#000000" mask="url(#mask-2)" stroke-width="4" fill="#F4E1DF" transform="translate(353.480769, 353.311081) rotate(48.000000) translate(-353.480769, -353.311081) " xlink:href="#path-1"></use>
            <g id="feathers-cluster" transform="translate(88.000000, 41.000000)">
                <g id="feather-happy-b" transform="translate(251.659766, 294.489869) rotate(24.000000) translate(-251.659766, -294.489869) translate(143.344952, 136.926355)">
                    <g id="feather-body" transform="translate(0.000000, 0.000000)">
                        <path d="M103.161802,312.134682 C117.180667,312.134682 124.388052,283.382879 131.136082,248.338468 C131.458273,246.665243 113.117804,261.398562 113.432496,259.681561 C113.747187,257.964559 134.010238,243.371877 134.326518,241.565162 C135.424431,235.293455 136.482686,228.775316 137.520045,222.085396 C138.004632,218.960297 117.728961,230.910223 117.728961,230.910223 C117.728961,230.910223 139.924519,206.120092 140.403675,202.839576 C142.333534,189.626921 144.251556,176.046523 146.286827,162.612018 C149.288738,142.796876 151.287589,107.924137 151.287589,107.924137 C151.287589,107.924137 149.9859,113.243438 146.757627,115.13887 C143.529353,117.034302 124.560165,123.498944 125.803419,121.797054 C126.829438,120.392538 141.06135,112.79312 145.131051,109.530031 C149.200752,106.266941 151.610654,100.220725 151.648512,99.2418227 C151.86703,93.5914818 152.058478,88.0154686 152.273027,82.4711473 C152.783174,69.2880367 152.521868,43.7089458 149.459025,26.4851032 C149.230947,25.2025094 133.030559,42.181585 132.77493,40.9512361 C132.428902,39.2857911 147.650242,23.5457606 147.251418,21.998358 C144.456464,11.1541634 140.332418,3.52373811 134.421488,3.52373811 C118.855971,3.52373811 94.9253958,34.9208051 79.4985081,78.8726185 C79.0781848,80.070136 101.646682,125.504719 101.239326,126.720495 C100.837793,127.918889 77.4602182,84.8982225 77.0719427,86.1136214 C76.6866876,87.3195658 77.0451601,92.5692664 76.5163047,94.4522032 C70.5348454,115.748592 64.5284245,140.08107 64.5284245,163.862548 C64.5284245,182.203782 65.2287227,199.737011 66.5890928,215.91079 C66.8002868,218.421728 94.2747989,250.791402 94.2747989,250.791402 C94.2747989,250.791402 68.0357021,223.767469 68.1719009,225.030999 C73.5989256,275.378028 85.3844718,312.134682 103.161802,312.134682 Z" id="Oval" fill="#DAF1F3" transform="translate(108.503849, 157.829210) rotate(37.000000) translate(-108.503849, -157.829210) "></path>
                        <path d="M191.680974,67.8602846 C191.680974,67.8602846 123.53697,129.802395 96.238921,164.717299 C68.9408717,199.632203 0.79686812,312.005946 0.79686812,312.005946" id="Path-2" stroke="#F3F5E9" stroke-width="10"></path>
                        <path d="M201.499634,65.2238432 C201.499634,65.2238432 139.234131,118.552799 114.290971,148.612727 C89.3478116,178.672655 27.0823084,275.42064 27.0823084,275.42064" id="Path-2-Copy" stroke="#DAF1F3" stroke-width="9" transform="translate(114.290971, 170.322242) rotate(-1.000000) translate(-114.290971, -170.322242) "></path>
                    </g>
                    <g id="eye-left" transform="translate(145.082829, 126.073710)">
                        <mask id="mask-4" fill="white">
                            <use xlink:href="#path-3"></use>
                        </mask>
                        <use id="Mask" fill="#FFFFFF" xlink:href="#path-3"></use>
                        <ellipse id="Oval-3" fill="#000000" mask="url(#mask-4)" cx="8.05094645" cy="3.02588092" rx="2.45773527" ry="2.84972894"></ellipse>
                    </g>
                    <g id="Oval-3-Copy-2" transform="translate(162.046358, 126.073710)">
                        <mask id="mask-6" fill="white">
                            <use xlink:href="#path-5"></use>
                        </mask>
                        <use id="Mask" fill="#FFFFFF" xlink:href="#path-5"></use>
                        <ellipse id="Oval-3" fill="#000000" mask="url(#mask-6)" cx="8.05094645" cy="3.02588092" rx="2.45773527" ry="2.84972894"></ellipse>
                    </g>
                </g>
                <g id="feather-happy-c-copy" transform="translate(338.073312, 375.780530) scale(-1, -1) rotate(-170.000000) translate(-338.073312, -375.780530) translate(229.413546, 199.634200)">
                    <g id="feather-body" transform="translate(-0.000000, -0.000000)">
                        <path d="M103.113464,348.161927 C117.132328,348.161927 124.339713,316.108712 131.087743,277.040342 C131.409934,275.17499 113.069466,291.600055 113.384157,289.6859 C113.698848,287.771745 133.9619,271.503465 134.27818,269.489294 C138.49565,242.631112 142.127938,211.719035 146.238489,181.470393 C149.2404,159.379986 156.053252,117.344972 151.23925,120.503001 C139.218494,128.388729 129.370609,133.407733 131.056937,130.834257 C132.082956,129.268467 137.518701,127.022608 141.588403,123.384836 C145.658104,119.747064 151.562315,111.915048 151.600173,110.823744 C151.818692,104.524605 152.010139,98.308329 152.224688,92.1273837 C152.734835,77.4305285 152.473529,48.9143304 149.410686,29.712768 C149.182608,28.282901 132.98222,47.211591 132.726591,45.839968 C132.380563,43.9832889 147.601903,26.4359168 147.20308,24.7108345 C144.408125,12.6214602 140.284079,4.11487489 134.373149,4.11487489 C122.952234,4.11487489 107.027885,22.9587555 93.2634881,52.3489066 C91.6183728,55.8616059 106.054903,100.312094 106.054903,100.312094 C106.054903,100.312094 86.4968944,68.0943538 85.5564244,70.5546161 C83.4114691,76.1658032 81.3652931,82.0328789 79.4501693,88.1156554 C79.029846,89.4506773 77.4118794,94.8331466 77.0236039,96.1881031 C76.6383488,97.5325195 76.9968213,103.385015 76.4679659,105.484159 C70.4865066,129.225896 64.4800857,156.352339 64.4800857,182.864514 C64.4800857,203.311772 65.1803839,222.858246 66.540754,240.889172 C66.751948,243.688426 94.2264601,279.774933 94.2264601,279.774933 C94.2264601,279.774933 67.9873632,249.64799 68.123562,251.056604 C73.5505868,307.184707 85.336133,348.161927 103.113464,348.161927 Z" id="Oval" fill="#E1F6F7" transform="translate(108.695566, 176.138401) rotate(37.000000) translate(-108.695566, -176.138401) "></path>
                        <path d="M191.680974,75.6523102 C191.680974,75.6523102 123.53697,144.706894 96.238921,183.630886 C68.9408717,222.554878 0.79686812,347.831884 0.79686812,347.831884" id="Path-2" stroke="#F3F5E9" stroke-width="9"></path>
                        <path d="M196.028632,76.0508562 C196.028632,76.0508562 136.330942,134.899523 112.416431,168.070747 C88.501921,201.241971 28.804231,308.003671 28.804231,308.003671" id="Path-2-Copy" stroke="#E1F6F7" stroke-width="4" transform="translate(112.416431, 192.027264) rotate(-1.000000) translate(-112.416431, -192.027264) "></path>
                    </g>
                    <g id="eye-left" transform="translate(145.082829, 138.464190)">
                        <mask id="mask-8" fill="white">
                            <use xlink:href="#path-7"></use>
                        </mask>
                        <use id="Mask" fill="#FFFFFF" xlink:href="#path-7"></use>
                        <ellipse id="Oval-3" fill="#000000" mask="url(#mask-8)" cx="11.4043612" cy="8.63647854" rx="3.26749895" ry="4.22367435"></ellipse>
                    </g>
                    <g id="eye-right" transform="translate(162.046358, 134.292440)">
                        <mask id="mask-10" fill="white">
                            <use xlink:href="#path-9"></use>
                        </mask>
                        <use id="Mask" fill="#FFFFFF" xlink:href="#path-9"></use>
                        <ellipse id="Oval-3" fill="#000000" mask="url(#mask-10)" cx="7.58249656" cy="10.3230142" rx="3.26749895" ry="4.22367435"></ellipse>
                    </g>
                </g>
                <g id="feather-happy-b-copy" transform="translate(359.906713, 457.071191) scale(-1, 1) rotate(-91.000000) translate(-359.906713, -457.071191) translate(251.591898, 299.507677)">
                    <g id="feather-body" transform="translate(0.000000, 0.000000)">
                        <path d="M103.161802,312.134682 C117.180667,312.134682 124.388052,283.382879 131.136082,248.338468 C131.458273,246.665243 113.117804,261.398562 113.432496,259.681561 C113.747187,257.964559 134.010238,243.371877 134.326518,241.565162 C135.424431,235.293455 136.482686,228.775316 137.520045,222.085396 C138.004632,218.960297 117.728961,230.910223 117.728961,230.910223 C117.728961,230.910223 139.924519,206.120092 140.403675,202.839576 C142.333534,189.626921 144.251556,176.046523 146.286827,162.612018 C149.288738,142.796876 151.287589,107.924137 151.287589,107.924137 C151.287589,107.924137 149.9859,113.243438 146.757627,115.13887 C143.529353,117.034302 124.560165,123.498944 125.803419,121.797054 C126.829438,120.392538 141.06135,112.79312 145.131051,109.530031 C149.200752,106.266941 151.610654,100.220725 151.648512,99.2418227 C151.86703,93.5914818 152.058478,88.0154686 152.273027,82.4711473 C152.783174,69.2880367 152.521868,43.7089458 149.459025,26.4851032 C149.230947,25.2025094 133.030559,42.181585 132.77493,40.9512361 C132.428902,39.2857911 147.650242,23.5457606 147.251418,21.998358 C144.456464,11.1541634 140.332418,3.52373811 134.421488,3.52373811 C118.855971,3.52373811 94.9253958,34.9208051 79.4985081,78.8726185 C79.0781848,80.070136 101.646682,125.504719 101.239326,126.720495 C100.837793,127.918889 77.4602182,84.8982225 77.0719427,86.1136214 C76.6866876,87.3195658 77.0451601,92.5692664 76.5163047,94.4522032 C70.5348454,115.748592 64.5284245,140.08107 64.5284245,163.862548 C64.5284245,182.203782 65.2287227,199.737011 66.5890928,215.91079 C66.8002868,218.421728 94.2747989,250.791402 94.2747989,250.791402 C94.2747989,250.791402 68.0357021,223.767469 68.1719009,225.030999 C73.5989256,275.378028 85.3844718,312.134682 103.161802,312.134682 Z" id="Oval" fill="#DAF1F3" transform="translate(108.503849, 157.829210) rotate(37.000000) translate(-108.503849, -157.829210) "></path>
                        <path d="M191.680974,67.8602846 C191.680974,67.8602846 123.53697,129.802395 96.238921,164.717299 C68.9408717,199.632203 0.79686812,312.005946 0.79686812,312.005946" id="Path-2" stroke="#F3F5E9" stroke-width="10"></path>
                        <path d="M201.499634,65.2238432 C201.499634,65.2238432 139.234131,118.552799 114.290971,148.612727 C89.3478116,178.672655 27.0823084,275.42064 27.0823084,275.42064" id="Path-2-Copy" stroke="#DAF1F3" stroke-width="9" transform="translate(114.290971, 170.322242) rotate(-1.000000) translate(-114.290971, -170.322242) "></path>
                    </g>
                    <g id="eye-left" transform="translate(145.082829, 126.073710)">
                        <mask id="mask-12" fill="white">
                            <use xlink:href="#path-11"></use>
                        </mask>
                        <use id="Mask" fill="#FFFFFF" xlink:href="#path-11"></use>
                        <ellipse id="Oval-3" fill="#000000" mask="url(#mask-12)" cx="8.05094645" cy="3.02588092" rx="2.45773527" ry="2.84972894"></ellipse>
                    </g>
                    <g id="Oval-3-Copy-2" transform="translate(162.046358, 126.073710)">
                        <mask id="mask-14" fill="white">
                            <use xlink:href="#path-13"></use>
                        </mask>
                        <use id="Mask" fill="#FFFFFF" xlink:href="#path-13"></use>
                        <ellipse id="Oval-3" fill="#000000" mask="url(#mask-14)" cx="8.05094645" cy="3.02588092" rx="2.45773527" ry="2.84972894"></ellipse>
                    </g>
                </g>
                <g id="feather-happy-b-copy-2" transform="translate(337.429870, 294.489869) scale(-1, 1) rotate(-91.000000) translate(-337.429870, -294.489869) translate(229.115056, 136.926355)">
                    <g id="feather-body" transform="translate(0.000000, 0.000000)">
                        <path d="M103.161802,312.134682 C117.180667,312.134682 124.388052,283.382879 131.136082,248.338468 C131.458273,246.665243 113.117804,261.398562 113.432496,259.681561 C113.747187,257.964559 134.010238,243.371877 134.326518,241.565162 C135.424431,235.293455 136.482686,228.775316 137.520045,222.085396 C138.004632,218.960297 117.728961,230.910223 117.728961,230.910223 C117.728961,230.910223 139.924519,206.120092 140.403675,202.839576 C142.333534,189.626921 144.251556,176.046523 146.286827,162.612018 C149.288738,142.796876 151.287589,107.924137 151.287589,107.924137 C151.287589,107.924137 149.9859,113.243438 146.757627,115.13887 C143.529353,117.034302 124.560165,123.498944 125.803419,121.797054 C126.829438,120.392538 141.06135,112.79312 145.131051,109.530031 C149.200752,106.266941 151.610654,100.220725 151.648512,99.2418227 C151.86703,93.5914818 152.058478,88.0154686 152.273027,82.4711473 C152.783174,69.2880367 152.521868,43.7089458 149.459025,26.4851032 C149.230947,25.2025094 133.030559,42.181585 132.77493,40.9512361 C132.428902,39.2857911 147.650242,23.5457606 147.251418,21.998358 C144.456464,11.1541634 140.332418,3.52373811 134.421488,3.52373811 C118.855971,3.52373811 94.9253958,34.9208051 79.4985081,78.8726185 C79.0781848,80.070136 101.646682,125.504719 101.239326,126.720495 C100.837793,127.918889 77.4602182,84.8982225 77.0719427,86.1136214 C76.6866876,87.3195658 77.0451601,92.5692664 76.5163047,94.4522032 C70.5348454,115.748592 64.5284245,140.08107 64.5284245,163.862548 C64.5284245,182.203782 65.2287227,199.737011 66.5890928,215.91079 C66.8002868,218.421728 94.2747989,250.791402 94.2747989,250.791402 C94.2747989,250.791402 68.0357021,223.767469 68.1719009,225.030999 C73.5989256,275.378028 85.3844718,312.134682 103.161802,312.134682 Z" id="Oval" fill="#DAF1F3" transform="translate(108.503849, 157.829210) rotate(37.000000) translate(-108.503849, -157.829210) "></path>
                        <path d="M191.680974,67.8602846 C191.680974,67.8602846 123.53697,129.802395 96.238921,164.717299 C68.9408717,199.632203 0.79686812,312.005946 0.79686812,312.005946" id="Path-2" stroke="#F3F5E9" stroke-width="10"></path>
                        <path d="M201.499634,65.2238432 C201.499634,65.2238432 139.234131,118.552799 114.290971,148.612727 C89.3478116,178.672655 27.0823084,275.42064 27.0823084,275.42064" id="Path-2-Copy" stroke="#DAF1F3" stroke-width="9" transform="translate(114.290971, 170.322242) rotate(-1.000000) translate(-114.290971, -170.322242) "></path>
                    </g>
                    <g id="eye-left" transform="translate(145.082829, 126.073710)">
                        <mask id="mask-16" fill="white">
                            <use xlink:href="#path-15"></use>
                        </mask>
                        <use id="Mask" fill="#FFFFFF" xlink:href="#path-15"></use>
                        <ellipse id="Oval-3" fill="#000000" mask="url(#mask-16)" cx="8.05094645" cy="3.02588092" rx="2.45773527" ry="2.84972894"></ellipse>
                    </g>
                    <g id="Oval-3-Copy-2" transform="translate(162.046358, 126.073710)">
                        <mask id="mask-18" fill="white">
                            <use xlink:href="#path-17"></use>
                        </mask>
                        <use id="Mask" fill="#FFFFFF" xlink:href="#path-17"></use>
                        <ellipse id="Oval-3" fill="#000000" mask="url(#mask-18)" cx="8.05094645" cy="3.02588092" rx="2.45773527" ry="2.84972894"></ellipse>
                    </g>
                </g>
                <g id="feather-happy-b-copy-3" transform="translate(200.476843, 170.048180) rotate(-7.000000) translate(-200.476843, -170.048180) translate(92.162028, 12.484667)">
                    <g id="feather-body" transform="translate(0.000000, 0.000000)">
                        <path d="M103.161802,312.134682 C117.180667,312.134682 124.388052,283.382879 131.136082,248.338468 C131.458273,246.665243 113.117804,261.398562 113.432496,259.681561 C113.747187,257.964559 134.010238,243.371877 134.326518,241.565162 C135.424431,235.293455 136.482686,228.775316 137.520045,222.085396 C138.004632,218.960297 117.728961,230.910223 117.728961,230.910223 C117.728961,230.910223 139.924519,206.120092 140.403675,202.839576 C142.333534,189.626921 144.251556,176.046523 146.286827,162.612018 C149.288738,142.796876 151.287589,107.924137 151.287589,107.924137 C151.287589,107.924137 149.9859,113.243438 146.757627,115.13887 C143.529353,117.034302 124.560165,123.498944 125.803419,121.797054 C126.829438,120.392538 141.06135,112.79312 145.131051,109.530031 C149.200752,106.266941 151.610654,100.220725 151.648512,99.2418227 C151.86703,93.5914818 152.058478,88.0154686 152.273027,82.4711473 C152.783174,69.2880367 152.521868,43.7089458 149.459025,26.4851032 C149.230947,25.2025094 133.030559,42.181585 132.77493,40.9512361 C132.428902,39.2857911 147.650242,23.5457606 147.251418,21.998358 C144.456464,11.1541634 140.332418,3.52373811 134.421488,3.52373811 C118.855971,3.52373811 94.9253958,34.9208051 79.4985081,78.8726185 C79.0781848,80.070136 101.646682,125.504719 101.239326,126.720495 C100.837793,127.918889 77.4602182,84.8982225 77.0719427,86.1136214 C76.6866876,87.3195658 77.0451601,92.5692664 76.5163047,94.4522032 C70.5348454,115.748592 64.5284245,140.08107 64.5284245,163.862548 C64.5284245,182.203782 65.2287227,199.737011 66.5890928,215.91079 C66.8002868,218.421728 94.2747989,250.791402 94.2747989,250.791402 C94.2747989,250.791402 68.0357021,223.767469 68.1719009,225.030999 C73.5989256,275.378028 85.3844718,312.134682 103.161802,312.134682 Z" id="Oval" fill="#DAF1F3" transform="translate(108.503849, 157.829210) rotate(37.000000) translate(-108.503849, -157.829210) "></path>
                        <path d="M191.680974,67.8602846 C191.680974,67.8602846 123.53697,129.802395 96.238921,164.717299 C68.9408717,199.632203 0.79686812,312.005946 0.79686812,312.005946" id="Path-2" stroke="#F3F5E9" stroke-width="10"></path>
                        <path d="M201.499634,65.2238432 C201.499634,65.2238432 139.234131,118.552799 114.290971,148.612727 C89.3478116,178.672655 27.0823084,275.42064 27.0823084,275.42064" id="Path-2-Copy" stroke="#DAF1F3" stroke-width="9" transform="translate(114.290971, 170.322242) rotate(-1.000000) translate(-114.290971, -170.322242) "></path>
                    </g>
                    <g id="eye-left" transform="translate(145.082829, 126.073710)">
                        <mask id="mask-20" fill="white">
                            <use xlink:href="#path-19"></use>
                        </mask>
                        <use id="Mask" fill="#FFFFFF" xlink:href="#path-19"></use>
                        <ellipse id="Oval-3" fill="#000000" mask="url(#mask-20)" cx="8.05094645" cy="3.02588092" rx="2.45773527" ry="2.84972894"></ellipse>
                    </g>
                    <g id="Oval-3-Copy-2" transform="translate(162.046358, 126.073710)">
                        <mask id="mask-22" fill="white">
                            <use xlink:href="#path-21"></use>
                        </mask>
                        <use id="Mask" fill="#FFFFFF" xlink:href="#path-21"></use>
                        <ellipse id="Oval-3" fill="#000000" mask="url(#mask-22)" cx="8.05094645" cy="3.02588092" rx="2.45773527" ry="2.84972894"></ellipse>
                    </g>
                </g>
                <g id="feather-happy-a-copy" transform="translate(178.000000, 50.000000)">
                    <g id="feather-body" transform="translate(0.000000, 0.000000)">
                        <path d="M81.1813935,265.329525 C92.2184677,265.329525 97.8928532,240.902201 103.205588,211.128721 C103.459249,209.707162 89.0197698,222.224483 89.2675266,220.765731 C89.5152835,219.306979 105.468416,206.909142 105.717424,205.374169 C109.037845,184.905909 111.897551,161.348231 115.133794,138.296147 C117.497203,121.461346 122.860973,89.4270257 119.070902,91.8337178 C109.606941,97.8433248 101.853686,101.66824 103.181335,99.7070289 C103.989121,98.5137616 108.268692,96.8022223 111.472774,94.0299251 C114.676856,91.2576279 119.325251,85.2889539 119.355057,84.4572858 C119.527097,79.6567969 119.677824,74.9194562 119.846738,70.2090408 C120.248378,59.008765 120.042652,37.2769538 117.63127,22.6437011 C117.451704,21.5540188 104.697113,35.979319 104.495856,34.9340235 C104.223427,33.5190733 116.207213,20.1464569 115.893218,18.8317948 C113.692746,9.61864517 110.445878,3.13589085 105.792193,3.13589085 C93.5374375,3.13589085 74.6968575,29.8106127 62.5512444,67.1517567 C62.2203232,68.1691589 79.988537,106.770053 79.6678245,107.802968 C79.3516975,108.821115 60.9464955,72.2710664 60.6408056,73.3036606 C60.3374936,74.3282223 79.9042056,111.329899 79.6116736,112.368076 C79.3191415,113.406254 60.6197196,78.78833 60.2033509,80.3880596 C55.4941385,98.4813181 50.7652738,119.154016 50.7652738,139.358588 C50.7652738,154.941169 51.3166197,169.837274 52.3876412,183.5784 C52.5539146,185.711674 74.1846416,213.212716 74.1846416,213.212716 C74.1846416,213.212716 53.526559,190.253378 53.6337885,191.326863 C57.9064937,234.101336 67.185273,265.329525 81.1813935,265.329525 Z" id="Oval" fill="#E9F4F5" transform="translate(85.576192, 134.232708) rotate(37.000000) translate(-85.576192, -134.232708) "></path>
                        <path d="M150.910735,57.6536088 C150.910735,57.6536088 97.2608528,110.279179 75.7690553,139.94263 C54.2772578,169.606081 0.627375536,265.078004 0.627375536,265.078004" id="Path-2" stroke="#F3F5E9" stroke-width="16"></path>
                        <path d="M153.767094,59.4671703 C153.767094,59.4671703 106.767008,104.314949 87.9390761,129.594292 C69.1111441,154.873636 22.111058,236.235293 22.111058,236.235293" id="Path-2-Copy" stroke="#E9F4F5" stroke-width="16" transform="translate(87.939076, 147.851232) rotate(-1.000000) translate(-87.939076, -147.851232) "></path>
                    </g>
                    <g id="eye-left" transform="translate(114.307385, 107.502606)">
                        <ellipse id="Oval-2" fill="#FFFFFF" cx="4.83744719" cy="3.22814557" rx="4.83744719" ry="3.22814557"></ellipse>
                        <ellipse id="Oval-3" fill="#000000" cx="6.77242607" cy="3.63166377" rx="1.93497888" ry="2.42110918"></ellipse>
                    </g>
                    <g id="eye-right" transform="translate(127.529740, 105.485015)">
                        <ellipse id="Oval-2-Copy" fill="#FFFFFF" cx="4.83744719" cy="3.22814557" rx="4.83744719" ry="3.22814557"></ellipse>
                        <ellipse id="Oval-3-Copy" fill="#000000" cx="6.77242607" cy="3.63166377" rx="1.93497888" ry="2.42110918"></ellipse>
                    </g>
                </g>
                <g id="feather-happy-c" transform="translate(126.126924, 184.238750) rotate(6.000000) translate(-126.126924, -184.238750) translate(17.467157, 17.123257)">
                    <g id="feather-body" transform="translate(-0.000000, -0.000000)">
                        <path d="M103.113464,330.312033 C117.132328,330.312033 124.339713,299.902152 131.087743,262.836777 C131.409934,261.067059 113.069466,276.650028 113.384157,274.83401 C113.698848,273.017992 133.9619,257.583769 134.27818,255.672863 C138.49565,230.191671 142.127938,200.864423 146.238489,172.166598 C149.2404,151.208743 156.053252,111.328819 151.23925,114.32494 C139.218494,121.806375 129.370609,126.568059 131.056937,124.126523 C132.082956,122.64101 137.518701,120.510293 141.588403,117.059026 C145.658104,113.607758 151.562315,106.177282 151.600173,105.141928 C151.818692,99.1657393 152.010139,93.2681648 152.224688,87.40411 C152.734835,73.4607471 152.473529,46.4065444 149.410686,28.1894258 C149.182608,26.8328666 132.98222,44.7911026 132.726591,43.4898012 C132.380563,41.7283122 147.601903,25.0805753 147.20308,23.4439361 C144.408125,11.9743713 140.284079,3.9039096 134.373149,3.9039096 C122.952234,3.9039096 107.027885,21.7816844 93.2634881,49.6650335 C91.6183728,52.9976404 106.054903,95.1691993 106.054903,95.1691993 C106.054903,95.1691993 86.4968944,64.6032282 85.5564244,66.9373555 C83.4114691,72.2608629 81.3652931,77.8271399 79.4501693,83.5980588 C79.029846,84.8646356 77.4118794,89.9711514 77.0236039,91.2566407 C76.6383488,92.5321303 76.9968213,98.084574 76.4679659,100.076097 C70.4865066,122.60062 64.4800857,148.336319 64.4800857,173.489243 C64.4800857,192.888192 65.1803839,211.432539 66.540754,228.539038 C66.751948,231.194778 94.2264601,265.431168 94.2264601,265.431168 C94.2264601,265.431168 67.9873632,236.848801 68.123562,238.185197 C73.5505868,291.435671 85.336133,330.312033 103.113464,330.312033 Z" id="Oval" fill="#E1F6F7" transform="translate(108.695566, 167.107971) rotate(37.000000) translate(-108.695566, -167.107971) "></path>
                        <path d="M191.680974,71.7736962 C191.680974,71.7736962 123.53697,137.287925 96.238921,174.216325 C68.9408717,211.144725 0.79686812,329.998911 0.79686812,329.998911" id="Path-2" stroke="#F3F5E9" stroke-width="9"></path>
                        <path d="M196.028632,72.1518092 C196.028632,72.1518092 136.330942,127.983367 112.416431,159.453937 C88.501921,190.924508 28.804231,292.212648 28.804231,292.212648" id="Path-2-Copy" stroke="#E1F6F7" stroke-width="4" transform="translate(112.416431, 182.182229) rotate(-1.000000) translate(-112.416431, -182.182229) "></path>
                    </g>
                    <g id="eye-left" transform="translate(145.082829, 131.365277)">
                        <mask id="mask-24" fill="white">
                            <use xlink:href="#path-23"></use>
                        </mask>
                        <use id="Mask" fill="#FFFFFF" xlink:href="#path-23"></use>
                        <ellipse id="Oval-3" fill="#000000" mask="url(#mask-24)" cx="11.4043612" cy="8.19369541" rx="3.26749895" ry="4.00713103"></ellipse>
                    </g>
                    <g id="eye-right" transform="translate(162.046358, 127.407409)">
                        <mask id="mask-26" fill="white">
                            <use xlink:href="#path-25"></use>
                        </mask>
                        <use id="Mask" fill="#FFFFFF" xlink:href="#path-25"></use>
                        <ellipse id="Oval-3" fill="#000000" mask="url(#mask-26)" cx="7.58249656" cy="9.7937642" rx="3.26749895" ry="4.00713103"></ellipse>
                    </g>
                </g>
                <g id="feather-happy-a" transform="translate(143.000000, 205.000000)">
                    <g id="feather-body" transform="translate(-0.000000, 0.000000)">
                        <path d="M103.113464,336.623168 C117.132328,336.623168 124.339713,305.632258 131.087743,267.85869 C131.409934,266.055159 113.069466,281.935866 113.384157,280.08515 C113.698848,278.234433 133.9619,262.505316 134.27818,260.557898 C138.49565,234.589848 142.127938,204.702257 146.238489,175.456113 C149.2404,154.097826 156.053252,113.455933 151.23925,116.509299 C139.218494,124.133679 129.370609,128.986343 131.056937,126.498157 C132.082956,124.984261 137.518701,122.812833 141.588403,119.295624 C145.658104,115.778415 151.562315,108.205967 151.600173,107.150831 C151.818692,101.060458 152.010139,95.050201 152.224688,89.0741041 C152.734835,74.8643311 152.473529,47.293215 149.410686,28.7280294 C149.182608,27.345551 132.98222,45.6469077 132.726591,44.3207428 C132.380563,42.5255977 147.601903,25.5597794 147.20308,23.8918697 C144.408125,12.2031606 140.284079,3.97849998 134.373149,3.97849998 C118.807632,3.97849998 94.877057,37.8206794 79.4501693,85.1953323 C79.029846,86.486109 101.598343,135.459005 101.190987,136.769463 C100.789454,138.061184 77.4118794,91.6901929 77.0236039,93.0002435 C76.6383488,94.3001034 101.491229,141.244075 101.119666,142.561209 C100.748103,143.878343 76.9968213,99.9586353 76.4679659,101.98821 C70.4865066,124.9431 64.4800857,151.17052 64.4800857,176.804031 C64.4800857,196.573627 65.1803839,215.472293 66.540754,232.905639 C66.751948,235.612121 94.2264601,270.502651 94.2264601,270.502651 C94.2264601,270.502651 67.9873632,241.374173 68.123562,242.736102 C73.5505868,297.004012 85.336133,336.623168 103.113464,336.623168 Z" id="Oval" fill="#E9F4F5" transform="translate(108.695566, 170.300834) rotate(37.000000) translate(-108.695566, -170.300834) "></path>
                        <path d="M191.680974,73.1450465 C191.680974,73.1450465 123.53697,139.911028 96.238921,177.545004 C68.9408717,215.17898 0.79686812,336.304063 0.79686812,336.304063" id="Path-2" stroke="#F3F5E9" stroke-width="16"></path>
                        <path d="M195.309011,75.4459091 C195.309011,75.4459091 135.611321,132.344218 111.69681,164.416083 C87.7823,196.487948 28.08461,299.71136 28.08461,299.71136" id="Path-2-Copy" stroke="#E9F4F5" stroke-width="16" transform="translate(111.696810, 187.578634) rotate(-1.000000) translate(-111.696810, -187.578634) "></path>
                    </g>
                    <g id="eye-left" transform="translate(145.188815, 136.388393)">
                        <ellipse id="Oval-2" fill="#FFFFFF" cx="6.14433817" cy="4.09554341" rx="6.14433817" ry="4.09554341"></ellipse>
                        <ellipse id="Oval-3" fill="#000000" cx="8.60207344" cy="4.60748634" rx="2.45773527" ry="3.07165756"></ellipse>
                    </g>
                    <g id="eye-right" transform="translate(161.983339, 133.828679)">
                        <ellipse id="Oval-2-Copy" fill="#FFFFFF" cx="6.14433817" cy="4.09554341" rx="6.14433817" ry="4.09554341"></ellipse>
                        <ellipse id="Oval-3-Copy" fill="#000000" cx="8.60207344" cy="4.60748634" rx="2.45773527" ry="3.07165756"></ellipse>
                    </g>
                </g>
            </g>
        </g>
    </g>
</svg>