<?xml version="1.0" encoding="UTF-8" standalone="no"?>
<svg width="247px" height="524px" viewBox="0 0 247 524" version="1.1" xmlns="http://www.w3.org/2000/svg" xmlns:xlink="http://www.w3.org/1999/xlink">
    <!-- Generator: Sketch 42 (36781) - http://www.bohemiancoding.com/sketch -->
    <title>feathers copy</title>
    <desc>Created with Sketch.</desc>
    <defs>
        <ellipse id="path-1" cx="11.3436838" cy="7.05434972" rx="11.1908156" ry="6.48300389"></ellipse>
        <ellipse id="path-3" cx="11.3436838" cy="7.05434972" rx="11.1908156" ry="6.48300389"></ellipse>
        <path d="M9.01508922,7.71359076 C13.9095588,7.71359076 17.8773103,7.92532297 17.8773103,5.30982061 C17.8773103,2.69431825 13.9095588,0.574034661 9.01508922,0.574034661 C4.12061967,0.574034661 0.152868149,2.69431825 0.152868149,5.30982061 C0.152868149,7.92532297 4.12061967,7.71359076 9.01508922,7.71359076 Z" id="path-5"></path>
        <path d="M9.01508922,7.71359076 C13.9095588,7.71359076 17.8773103,7.92532297 17.8773103,5.30982061 C17.8773103,2.69431825 13.9095588,0.574034661 9.01508922,0.574034661 C4.12061967,0.574034661 0.152868149,2.69431825 0.152868149,5.30982061 C0.152868149,7.92532297 4.12061967,7.71359076 9.01508922,7.71359076 Z" id="path-7"></path>
    </defs>
    <g id="Page-1" stroke="none" stroke-width="1" fill="none" fill-rule="evenodd">
        <g id="feathers-copy" transform="translate(-191.000000, -58.000000)">
            <g id="feather-c" transform="translate(372.926334, 334.570254) rotate(-36.000000) translate(-372.926334, -334.570254) translate(205.926334, 142.070254)">
                <g id="feather-body" transform="translate(0.000000, 0.000000)">
                    <path d="M158.670433,384.857875 C178.890394,384.857875 189.285889,349.02226 199.01884,305.343677 C199.483547,303.258206 173.030368,321.62149 173.484259,319.481458 C173.93815,317.341425 203.164348,299.153427 203.620531,296.901577 C209.703555,266.874028 214.942547,232.31421 220.871356,198.496116 C225.201131,173.798959 235.027577,126.803655 228.084152,130.334344 C210.746141,139.150617 196.542149,144.761882 198.974406,141.884726 C200.454274,140.134168 208.294464,137.623289 214.164354,133.556246 C220.034244,129.489203 228.550121,120.73298 228.604725,119.512898 C228.919903,112.470437 229.196035,105.520617 229.505488,98.6102971 C230.241293,82.179158 229.864401,50.2979419 225.446742,28.8305233 C225.117776,27.2319267 201.751318,48.3942729 201.382615,46.8607932 C200.883524,44.7850191 222.837863,25.1669914 222.262624,23.2383429 C218.231352,9.7223772 212.283077,0.211983009 203.757509,0.211983009 C187.284673,0.211983009 164.316357,21.2795121 144.463426,54.137811 C142.090611,58.0650219 162.912987,107.760834 162.912987,107.760834 C162.912987,107.760834 134.703701,71.7412798 133.347224,74.4918623 C130.25347,80.7651904 127.30219,87.324603 124.539932,94.1251699 C123.933683,95.6177294 121.600026,101.63535 121.040001,103.150197 C120.484332,104.653259 121.001371,111.19637 120.238582,113.543222 C111.611288,140.086572 102.94799,170.414037 102.94799,200.054748 C102.94799,222.914859 103.958058,244.76789 105.920173,264.926533 C106.224787,268.05611 145.852358,308.400959 145.852358,308.400959 C145.852358,308.400959 108.006675,274.718924 108.20312,276.293759 C116.030731,339.045189 133.029489,384.857875 158.670433,384.857875 Z" id="Oval" fill="#E1F6F7" transform="translate(166.721720, 192.534929) rotate(37.000000) translate(-166.721720, -192.534929) "></path>
                    <path d="M286.414844,80.1911034 C286.414844,80.1911034 188.128062,157.394387 148.75501,200.911555 C109.381958,244.428724 11.0951758,384.488885 11.0951758,384.488885" id="Path-2" stroke="#F3F5E9" stroke-width="9"></path>
                    <path d="M292.685642,80.6366793 C292.685642,80.6366793 206.581311,146.429709 172.088471,183.515262 C137.59563,220.600814 51.491299,339.960794 51.491299,339.960794" id="Path-2-Copy" stroke="#E1F6F7" stroke-width="4" transform="translate(172.088471, 210.298737) rotate(-1.000000) translate(-172.088471, -210.298737) "></path>
                </g>
                <g id="eye-left" transform="translate(219.204503, 150.415020)">
                    <mask id="mask-2" fill="white">
                        <use xlink:href="#path-1"></use>
                    </mask>
                    <use id="Mask" fill="#FFFFFF" xlink:href="#path-1"></use>
                    <ellipse id="Oval-3" fill="#000000" mask="url(#mask-2)" cx="16.4489596" cy="9.65561532" rx="4.71284249" ry="4.72208372"></ellipse>
                </g>
                <g id="eye-right" transform="translate(243.671670, 145.750988)">
                    <mask id="mask-4" fill="white">
                        <use xlink:href="#path-3"></use>
                    </mask>
                    <use id="Mask" fill="#FFFFFF" xlink:href="#path-3"></use>
                    <ellipse id="Oval-3" fill="#000000" mask="url(#mask-4)" cx="10.9365336" cy="11.5411685" rx="4.71284249" ry="4.72208372"></ellipse>
                </g>
            </g>
            <g id="feather-b" transform="translate(309.834993, 280.168602) rotate(-38.000000) translate(-309.834993, -280.168602) translate(143.334993, 87.668602)">
                <g id="feather-body" transform="translate(-0.000000, -0.000000)">
                    <path d="M158.740154,384.649339 C178.960115,384.649339 189.35561,348.813724 199.088561,305.135141 C199.553268,303.04967 173.100088,321.412954 173.55398,319.272922 C174.007871,317.132889 203.234069,298.944891 203.690252,296.693041 C205.273815,288.876123 206.800178,280.752058 208.296402,272.413889 C208.995341,268.518835 179.750942,283.41296 179.750942,283.41296 C179.750942,283.41296 211.764469,252.515086 212.455575,248.426322 C215.239087,231.95836 218.005526,215.032051 220.941077,198.28758 C225.270852,173.590423 228.153873,130.125808 228.153873,130.125808 C228.153873,130.125808 226.276395,136.755668 221.620129,139.118092 C216.963864,141.480517 189.603857,149.537904 191.397051,147.416707 C192.876918,145.666148 213.404165,136.194401 219.274055,132.127358 C225.143946,128.060315 228.619842,120.524444 228.674446,119.304362 C228.989624,112.261901 229.265756,105.312081 229.575209,98.4017612 C230.311014,81.9706221 229.934122,50.089406 225.516463,28.6219874 C225.187497,27.0233908 201.821039,48.185737 201.452336,46.6522573 C200.953245,44.5764832 222.907584,24.9584555 222.332345,23.029807 C218.301073,9.51384134 212.352798,0.00344714546 203.82723,0.00344714546 C181.376472,0.00344714546 146.860461,39.1360607 124.609653,93.916634 C124.003404,95.4091936 156.554837,152.037858 155.96729,153.553175 C155.388145,155.046826 121.669747,101.426814 121.109722,102.941661 C120.554053,104.444723 121.071092,110.987835 120.308303,113.334686 C111.681009,139.878036 103.017711,170.205501 103.017711,199.846212 C103.017711,222.706323 104.027779,244.559354 105.989894,264.717997 C106.294508,267.847574 145.922079,308.192424 145.922079,308.192424 C145.922079,308.192424 108.076396,274.510389 108.272841,276.085224 C116.100452,338.836653 133.09921,384.649339 158.740154,384.649339 Z" id="Oval" fill="#DAF1F3" transform="translate(166.445199, 192.326393) rotate(37.000000) translate(-166.445199, -192.326393) "></path>
                    <path d="M286.414844,80.1911034 C286.414844,80.1911034 188.128062,157.394387 148.75501,200.911555 C109.381958,244.428724 11.0951758,384.488885 11.0951758,384.488885" id="Path-2" stroke="#F3F5E9" stroke-width="10"></path>
                    <path d="M300.576685,76.9051008 C300.576685,76.9051008 210.768696,143.373138 174.792193,180.839171 C138.815691,218.305204 49.0077022,338.889765 49.0077022,338.889765" id="Path-2-Copy" stroke="#DAF1F3" stroke-width="9" transform="translate(174.792193, 207.897433) rotate(-1.000000) translate(-174.792193, -207.897433) "></path>
                </g>
                <g id="eye-left" transform="translate(219.204503, 152.747036)">
                    <mask id="mask-6" fill="white">
                        <use xlink:href="#path-5"></use>
                    </mask>
                    <use id="Mask" fill="#FFFFFF" xlink:href="#path-5"></use>
                    <ellipse id="Oval-3" fill="#000000" mask="url(#mask-6)" cx="11.6121973" cy="3.77139141" rx="3.54488843" ry="3.55183946"></ellipse>
                </g>
                <g id="Oval-3-Copy-2" transform="translate(243.671670, 152.747036)">
                    <mask id="mask-8" fill="white">
                        <use xlink:href="#path-7"></use>
                    </mask>
                    <use id="Mask" fill="#FFFFFF" xlink:href="#path-7"></use>
                    <ellipse id="Oval-3" fill="#000000" mask="url(#mask-8)" cx="11.6121973" cy="3.77139141" rx="3.54488843" ry="3.55183946"></ellipse>
                </g>
            </g>
            <g id="feather-a" transform="translate(255.347329, 254.229578) rotate(-46.000000) translate(-255.347329, -254.229578) translate(88.347329, 61.729578)">
                <g id="feather-body" transform="translate(0.000000, -0.000000)">
                    <path d="M158.670433,384.857875 C178.890394,384.857875 189.285889,349.02226 199.01884,305.343677 C199.483547,303.258206 173.030368,321.62149 173.484259,319.481458 C173.93815,317.341425 203.164348,299.153427 203.620531,296.901577 C209.703555,266.874028 214.942547,232.31421 220.871356,198.496116 C225.201131,173.798959 235.027577,126.803655 228.084152,130.334344 C210.746141,139.150617 196.542149,144.761882 198.974406,141.884726 C200.454274,140.134168 208.294464,137.623289 214.164354,133.556246 C220.034244,129.489203 228.550121,120.73298 228.604725,119.512898 C228.919903,112.470437 229.196035,105.520617 229.505488,98.6102971 C230.241293,82.179158 229.864401,50.2979419 225.446742,28.8305233 C225.117776,27.2319267 201.751318,48.3942729 201.382615,46.8607932 C200.883524,44.7850191 222.837863,25.1669914 222.262624,23.2383429 C218.231352,9.7223772 212.283077,0.211983009 203.757509,0.211983009 C181.306751,0.211983009 146.79074,39.3445966 124.539932,94.1251699 C123.933683,95.6177294 156.485116,152.246394 155.897569,153.761711 C155.318424,155.255362 121.600026,101.63535 121.040001,103.150197 C120.484332,104.653259 156.33062,158.935824 155.794701,160.458861 C155.258781,161.981898 121.001371,111.19637 120.238582,113.543222 C111.611288,140.086572 102.94799,170.414037 102.94799,200.054748 C102.94799,222.914859 103.958058,244.76789 105.920173,264.926533 C106.224787,268.05611 145.852358,308.400959 145.852358,308.400959 C145.852358,308.400959 108.006675,274.718924 108.20312,276.293759 C116.030731,339.045189 133.029489,384.857875 158.670433,384.857875 Z" id="Oval" fill="#E9F4F5" transform="translate(166.721720, 192.534929) rotate(37.000000) translate(-166.721720, -192.534929) "></path>
                    <path d="M286.414844,80.1911034 C286.414844,80.1911034 188.128062,157.394387 148.75501,200.911555 C109.381958,244.428724 11.0951758,384.488885 11.0951758,384.488885" id="Path-2" stroke="#F3F5E9" stroke-width="16"></path>
                    <path d="M291.647704,82.8516522 C291.647704,82.8516522 205.543374,148.644682 171.050533,185.730234 C136.557692,222.815787 50.4533612,342.175767 50.4533612,342.175767" id="Path-2-Copy" stroke="#E9F4F5" stroke-width="16" transform="translate(171.050533, 212.513710) rotate(-1.000000) translate(-171.050533, -212.513710) "></path>
                </g>
                <g id="eye-left" transform="translate(219.357371, 153.321070)">
                    <ellipse id="Oval-2" fill="#FFFFFF" cx="8.86222107" cy="4.73578595" rx="8.86222107" ry="4.73578595"></ellipse>
                    <ellipse id="Oval-3" fill="#000000" cx="12.4071095" cy="5.3277592" rx="3.54488843" ry="3.55183946"></ellipse>
                </g>
                <g id="eye-right" transform="translate(243.580775, 150.361204)">
                    <ellipse id="Oval-2-Copy" fill="#FFFFFF" cx="8.86222107" cy="4.73578595" rx="8.86222107" ry="4.73578595"></ellipse>
                    <ellipse id="Oval-3-Copy" fill="#000000" cx="12.4071095" cy="5.3277592" rx="3.54488843" ry="3.55183946"></ellipse>
                </g>
            </g>
        </g>
    </g>
</svg>