<?xml version="1.0" encoding="UTF-8" standalone="no"?>
<svg width="500px" height="500px" viewBox="0 0 500 500" version="1.1" xmlns="http://www.w3.org/2000/svg" xmlns:xlink="http://www.w3.org/1999/xlink">
    <!-- Generator: Sketch 42 (36781) - http://www.bohemiancoding.com/sketch -->
    <title>fox</title>
    <desc>Created with Sketch.</desc>
    <defs>
        <rect id="path-1" x="-3.25937035e-14" y="0" width="500" height="500"></rect>
        <mask id="mask-2" maskContentUnits="userSpaceOnUse" maskUnits="objectBoundingBox" x="0" y="0" width="500" height="500" fill="white">
            <use xlink:href="#path-1"></use>
        </mask>
        <linearGradient x1="50%" y1="8.87789824%" x2="6.35516827%" y2="100%" id="linearGradient-3">
            <stop stop-color="#F4ECEC" offset="0%"></stop>
            <stop stop-color="#F0B0B0" offset="23.9309211%"></stop>
            <stop stop-color="#EA5353" offset="46.0603413%"></stop>
            <stop stop-color="#2C0201" offset="100%"></stop>
        </linearGradient>
        <linearGradient x1="8.54605015%" y1="71.9319999%" x2="90.4882812%" y2="72.1241713%" id="linearGradient-4">
            <stop stop-color="#971817" offset="0%"></stop>
            <stop stop-color="#EB7D6F" offset="21.8206914%"></stop>
            <stop stop-color="#E3A49C" offset="51.7674517%"></stop>
            <stop stop-color="#D86A5C" offset="73.3860343%"></stop>
            <stop stop-color="#971817" offset="100%"></stop>
        </linearGradient>
        <radialGradient cx="50%" cy="0%" fx="50%" fy="0%" r="92.256012%" id="radialGradient-5">
            <stop stop-color="#E3A49C" offset="0%"></stop>
            <stop stop-color="#BC4E4D" offset="100%"></stop>
        </radialGradient>
        <linearGradient x1="50%" y1="0%" x2="50%" y2="100%" id="linearGradient-6">
            <stop stop-color="#E3A49C" offset="0%"></stop>
            <stop stop-color="#BC434D" offset="100%"></stop>
        </linearGradient>
        <linearGradient x1="50%" y1="0%" x2="50%" y2="100%" id="linearGradient-7">
            <stop stop-color="#F4E1DF" offset="0%"></stop>
            <stop stop-color="#E3A49C" offset="100%"></stop>
        </linearGradient>
        <ellipse id="path-8" cx="24.0542402" cy="24.0493827" rx="24.0542402" ry="24.0493827"></ellipse>
        <radialGradient cx="50%" cy="50%" fx="50%" fy="50%" r="86.1492138%" id="radialGradient-10">
            <stop stop-color="#292222" offset="0%"></stop>
            <stop stop-color="#E1690E" offset="100%"></stop>
        </radialGradient>
        <ellipse id="path-11" cx="24.0542402" cy="24.0493827" rx="24.0542402" ry="24.0493827"></ellipse>
    </defs>
    <g id="Page-1" stroke="none" stroke-width="1" fill="none" fill-rule="evenodd">
        <g id="fox">
            <use id="Rectangle-Copy-3" stroke="#000000" mask="url(#mask-2)" stroke-width="4" fill="#F4E1DF" xlink:href="#path-1"></use>
            <g id="fox-entire" transform="translate(63.000000, 0.000000)">
                <g id="body" transform="translate(40.892208, 86.748467)">
                    <path d="M181.345417,375.549611 L189.441735,350.636738 C195.586503,331.728906 198.242676,300.455619 195.372222,280.770523 L195.899396,284.385797 C193.029946,264.707584 197.235156,234.010653 197.91342,232.479468 L190.703796,248.755241 C194.685562,239.76638 196.507612,216.414245 194.775207,196.616766 L188.900079,129.477312 C187.166892,109.670888 197.88962,83.002094 212.856165,69.9054645 L283.964649,7.68125407 L291.204133,50.7095115 C294.503188,70.3176169 299.900842,102.102068 303.259589,121.698908 L309.858304,160.199562 C313.217293,179.797818 323.931792,209.682925 333.79043,226.950912 L349.101182,253.768599 C358.959541,271.036096 361.852426,300.327761 355.564911,319.186498 L344.124975,353.499375 C337.836434,372.361186 316.67286,388.891292 296.847936,390.420931 L276.396525,391.998908 C256.574677,393.528309 225.174412,389.787639 206.263321,383.644294 L181.345417,375.549611 Z" id="tail" fill="url(#linearGradient-3)" transform="translate(270.117478, 200.011183) rotate(5.000000) translate(-270.117478, -200.011183) "></path>
                    <path d="M132.298321,153.916049 C132.298321,153.916049 176.092448,234.787394 199.650194,273.983929 C202.632817,278.946564 206.444976,288.463371 211.677314,292.2 C215.193156,294.710809 221.499251,285.658259 227.800641,284.740529 C236.588467,283.460677 245.367144,290.048755 246.555962,295.437122 C248.935313,306.221629 250.476206,318.649844 246.734746,331.162596 C242.656663,344.801131 232.981411,358.5401 228.515282,370.360494 C219.951677,393.025576 228.515282,394.051808 228.515282,394.051808 L36.0813603,394.051808 C36.0813603,394.051808 41.9962612,384.087191 36.0813603,370.360494 C30.1664594,356.633796 7.94432469,325.856708 12.0271201,305.42716 C15.0233278,290.434695 27.3336368,283.494484 36.0813603,282.580247 C44.8290838,281.66601 60.6196403,295.187161 63.7437365,287.390123 C79.8930207,247.085165 132.298321,153.916049 132.298321,153.916049 Z" fill="url(#linearGradient-4)"></path>
                    <g id="leg-left" transform="translate(84.189841, 323.464198)">
                        <path d="M6.61491606,0.601234568 L10.2230521,58.3197531" id="Line" stroke="#8F0606" stroke-width="2" stroke-linecap="square"></path>
                        <path d="M24.6555962,5.41111111 L28.2637322,63.1296296" id="Line-Copy-3" stroke="#8F0606" stroke-width="2" stroke-linecap="square" transform="translate(26.459664, 34.270370) scale(-1, 1) translate(-26.459664, -34.270370) "></path>
                        <path d="M28.8650882,74.5530864 C28.8650882,63.9274006 22.4034181,55.3135802 14.4325441,55.3135802 C6.4616701,55.3135802 0,63.9274006 0,74.5530864" id="paw" fill="#000000"></path>
                    </g>
                    <g id="leg-right" transform="translate(150.339001, 321.059259)">
                        <path d="M0.601356005,5.41111111 L4.20949204,63.1296296" id="Line-Copy-4" stroke="#8F0606" stroke-width="2" stroke-linecap="square"></path>
                        <path d="M18.6420362,0.601234568 L22.2501722,58.3197531" id="Line-Copy-5" stroke="#8F0606" stroke-width="2" stroke-linecap="square" transform="translate(20.446104, 29.460494) scale(-1, 1) translate(-20.446104, -29.460494) "></path>
                        <path d="M30.0678003,76.9580247 C30.0678003,65.6682335 23.6061302,56.5160494 15.6352561,56.5160494 C7.66438211,56.5160494 1.20271201,65.6682335 1.20271201,76.9580247" id="paw" fill="#000000"></path>
                    </g>
                    <g id="backleg" transform="translate(0.000000, 283.782716)">
                        <path d="M36.6827163,85.9765432 C36.6827163,85.9765432 7.34357325,41.3940482 12.0271201,26.454321 C13.9926209,20.184704 16.5522975,4.56166791 26.4596642,1.20246914 C36.3670309,-2.15672964 60.1356005,7.21481481 60.1356005,7.21481481 L69.7572966,21.6444444" id="Line" stroke="#9B0707" stroke-width="3" stroke-linecap="square"></path>
                        <path d="M72.1627206,110.62716 C72.1627206,97.3450532 56.0085454,86.5777778 36.0813603,86.5777778 C16.1541753,86.5777778 0,97.3450532 0,110.62716" id="backfoot" fill="#000000"></path>
                    </g>
                    <g id="backleg-copy" transform="translate(228.096642, 339.985185) scale(-1, 1) translate(-228.096642, -339.985185) translate(191.596642, 284.985185)">
                        <path d="M17.4393241,21.0432099 C17.4393241,21.0432099 17.4393241,17.4358025 25.2569522,10.8222222 C25.7882989,10.372712 33.8804538,-2.25271036e-13 42.0949204,-2.27373675e-13 C49.3111924,-2.27373675e-13 50.8519713,3.8683698 55.3247525,8.41728395 C59.7975337,12.9661981 60.1189455,20.7239169 60.1356005,24.6506173 C60.1521629,28.5554653 60.3000506,33.1036405 57.7301765,43.886697 C55.1603024,54.6697535 38.1576782,86.5777778 38.1576782,86.5777778" id="Line" stroke="#9B0707" stroke-width="3" stroke-linecap="square" transform="translate(38.790901, 43.288889) scale(-1, 1) translate(-38.790901, -43.288889) "></path>
                        <path d="M72.1627206,109.424691 C72.1627206,96.142584 56.0085454,85.3753086 36.0813603,85.3753086 C16.1541753,85.3753086 0,96.142584 0,109.424691" id="backfoot" fill="#000000"></path>
                    </g>
                </g>
                <g id="head" transform="translate(176.724054, 179.386026) rotate(-6.000000) translate(-176.724054, -179.386026) translate(16.724054, 15.886026)">
                    <path d="M4.31626902,227.171842 C23.6810736,199.867674 99.7417913,177.42146 154.625619,177.425511 C195.381813,177.428519 222.971623,174.879506 248.485276,177.432438 C273.99893,179.985369 307.470294,195.324841 314.51291,199.281511 C316.627132,200.469319 318.175088,202.479603 319.232557,205.113846 C301.722707,211.371867 283.181976,219.54363 264.460316,229.498113 C211.243263,257.794122 170.785524,292.932999 156.498176,320.413476 C137.187663,300.328153 109.754579,279.118247 77.2992167,260.380135 C52.0111204,245.780046 26.9479563,234.570796 4.31626902,227.171842 Z" id="Combined-Shape" fill="#F4E2DF"></path>
                    <path d="M159.283952,315.832385 C155.821029,315.822007 152.383749,315.739352 148.975341,315.586567 C137.593393,299.358999 124.105341,283.055623 108.739701,267.251106 C103.826047,262.197107 98.7203902,257.194122 93.4302027,252.260942 C63.2204285,224.089872 31.159588,202.080501 0.835734641,187.376895 C15.2368484,137.586725 81.0353816,99.9756277 160.029361,99.9756277 C227.743928,99.9756277 285.762324,127.612713 310.021527,166.867522 C267.817776,182.822196 218.480497,225.269012 178.634967,284.342439 C171.5854,294.793853 165.129673,305.325779 159.283952,315.832385 Z" id="foxhead-top_left" fill="url(#radialGradient-5)"></path>
                    <ellipse id="nose" fill="#000000" transform="translate(155.127849, 306.716130) scale(-1, 1) rotate(7.000000) translate(-155.127849, -306.716130) " cx="155.127849" cy="306.71613" rx="12.0271201" ry="16.2333333"></ellipse>
                    <g id="ears" transform="translate(133.668652, 70.265133) rotate(-356.000000) translate(-133.668652, -70.265133) translate(33.668652, 7.265133)">
                        <g id="rightear" transform="translate(50.957429, 67.826376) rotate(-20.000000) translate(-50.957429, -67.826376) translate(14.457429, 19.326376)">
                            <polygon id="outterear" fill="url(#linearGradient-6)" points="36.0813603 -1.27897692e-13 57.9186151 48.6011669 72.1627206 96.1975309 -6.39488462e-14 96.1975309 14.7735099 47.189707"></polygon>
                            <polygon id="innerear" fill="url(#linearGradient-7)" points="36.0813603 27.6567901 49.2286113 53.8376068 67.3518726 96.1975309 6.01356005 96.1975309 22.7960036 55.1996569"></polygon>
                        </g>
                        <g id="leftear" transform="translate(158.891026, 51.540982) rotate(5.000000) translate(-158.891026, -51.540982) translate(122.391026, 3.040982)">
                            <polygon id="outterear" fill="url(#linearGradient-6)" points="36.0813603 5.32907052e-14 57.9186151 48.6011669 72.1627206 96.1975309 8.52651283e-14 96.1975309 14.7735099 47.189707"></polygon>
                            <polygon id="innerear" fill="url(#linearGradient-7)" points="36.0813603 27.6567901 49.2286113 53.8376068 67.3518726 96.1975309 6.01356005 96.1975309 22.7960036 55.1996569"></polygon>
                        </g>
                    </g>
                    <g id="eye-left-copy" transform="translate(103.987108, 156.357208)">
                        <mask id="mask-9" fill="white">
                            <use xlink:href="#path-8"></use>
                        </mask>
                        <use id="Mask" fill="#F3EFCE" xlink:href="#path-8"></use>
                        <ellipse id="pupil" stroke="#979797" fill="url(#radialGradient-10)" mask="url(#mask-9)" cx="23.5794797" cy="25.7941444" rx="12.0271201" ry="12.0246914"></ellipse>
                    </g>
                    <g id="eye-left" transform="translate(157.622280, 152.320612)">
                        <mask id="mask-12" fill="white">
                            <use xlink:href="#path-11"></use>
                        </mask>
                        <use id="Mask" fill="#F3EFCE" xlink:href="#path-11"></use>
                        <ellipse id="pupil" stroke="#979797" fill="url(#radialGradient-10)" mask="url(#mask-12)" cx="23.5794797" cy="25.7941444" rx="12.0271201" ry="12.0246914"></ellipse>
                    </g>
                    <g id="whiskers" transform="translate(153.456887, 286.264132) rotate(-11.000000) translate(-153.456887, -286.264132) translate(56.456887, 263.764132)" stroke="#0B0B0B">
                        <path d="M76.9735687,25.2518519 L2.40542402,44.491358" id="Path-2"></path>
                        <path d="M75.7708567,15.6320988 L0.601356005,0.601234568" id="Path-2-Copy"></path>
                        <path d="M73.3654326,21.6444444 L1.20271201,31.2641975" id="Path-2-Copy-2"></path>
                        <path d="M193.636634,6.01234568 L121.473913,15.6320988" id="Path-2-Copy-3"></path>
                        <path d="M181.008158,36.6753086 L108.244081,22.8469136" id="Path-2-Copy-5"></path>
                        <path d="M191.832566,27.0555556 L121.473913,15.6320988" id="Path-2-Copy-4"></path>
                    </g>
                </g>
            </g>
        </g>
    </g>
</svg>