<?xml version="1.0" encoding="UTF-8" standalone="no"?>
<svg width="510px" height="483px" viewBox="0 0 510 483" version="1.1" xmlns="http://www.w3.org/2000/svg" xmlns:xlink="http://www.w3.org/1999/xlink">
    <!-- Generator: Sketch 42 (36781) - http://www.bohemiancoding.com/sketch -->
    <title>fox looking left sneeze</title>
    <desc>Created with Sketch.</desc>
    <defs>
        <linearGradient x1="89.9038462%" y1="0%" x2="6.35516827%" y2="100%" id="linearGradient-1">
            <stop stop-color="#F4ECEC" offset="0%"></stop>
            <stop stop-color="#F0B0B0" offset="23.9309211%"></stop>
            <stop stop-color="#EA5353" offset="46.0603413%"></stop>
            <stop stop-color="#971817" offset="100%"></stop>
        </linearGradient>
        <linearGradient x1="14.2773437%" y1="56.7016098%" x2="90.4882812%" y2="72.1241713%" id="linearGradient-2">
            <stop stop-color="#971817" offset="0%"></stop>
            <stop stop-color="#EB7D6F" offset="21.8206914%"></stop>
            <stop stop-color="#E3A49C" offset="45.7619675%"></stop>
            <stop stop-color="#D86A5C" offset="73.3860343%"></stop>
            <stop stop-color="#971817" offset="100%"></stop>
        </linearGradient>
        <radialGradient cx="50%" cy="0%" fx="50%" fy="0%" r="92.256012%" id="radialGradient-3">
            <stop stop-color="#E3A49C" offset="0%"></stop>
            <stop stop-color="#BC4E4D" offset="100%"></stop>
        </radialGradient>
        <path d="M28.9948454,30.9278351 C43.2289884,30.9278351 57.9896907,41.2959987 57.9896907,27.0618557 C57.9896907,12.8277126 40.0073389,3.96208729e-14 25.7731959,3.96208729e-14 C11.5390528,3.96208729e-14 0,1.22977449 0,15.4639175 C0,29.6980606 14.7607023,30.9278351 28.9948454,30.9278351 Z" id="path-4"></path>
        <radialGradient cx="50%" cy="50%" fx="50%" fy="50%" r="86.1492138%" id="radialGradient-6">
            <stop stop-color="#292222" offset="0%"></stop>
            <stop stop-color="#E1690E" offset="100%"></stop>
        </radialGradient>
        <linearGradient x1="50%" y1="0%" x2="50%" y2="100%" id="linearGradient-7">
            <stop stop-color="#E3A49C" offset="0%"></stop>
            <stop stop-color="#BC434D" offset="100%"></stop>
        </linearGradient>
        <linearGradient x1="50%" y1="0%" x2="50%" y2="100%" id="linearGradient-8">
            <stop stop-color="#F4E1DF" offset="0%"></stop>
            <stop stop-color="#E3A49C" offset="100%"></stop>
        </linearGradient>
        <ellipse id="path-9" cx="2.71309229" cy="1.68472928" rx="2.6765305" ry="1.54827971"></ellipse>
        <ellipse id="path-11" cx="2.71309229" cy="1.68472928" rx="2.6765305" ry="1.54827971"></ellipse>
        <path d="M2.15615752,1.84217012 C3.32677792,1.84217012 4.27575325,1.89273629 4.27575325,1.2680985 C4.27575325,0.643460708 3.32677792,0.13709173 2.15615752,0.13709173 C0.985537123,0.13709173 0.0365617911,0.643460708 0.0365617911,1.2680985 C0.0365617911,1.89273629 0.985537123,1.84217012 2.15615752,1.84217012 Z" id="path-13"></path>
        <path d="M2.15615752,1.84217012 C3.32677792,1.84217012 4.27575325,1.89273629 4.27575325,1.2680985 C4.27575325,0.643460708 3.32677792,0.13709173 2.15615752,0.13709173 C0.985537123,0.13709173 0.0365617911,0.643460708 0.0365617911,1.2680985 C0.0365617911,1.89273629 0.985537123,1.84217012 2.15615752,1.84217012 Z" id="path-15"></path>
    </defs>
    <g id="Page-1" stroke="none" stroke-width="1" fill="none" fill-rule="evenodd">
        <g id="fox-looking-left-sneeze" transform="translate(-11.000000, -5.000000)">
            <path d="M155.927835,469.072165 C155.927835,454.838022 147.273545,443.298969 136.597938,443.298969 C125.922331,443.298969 117.268041,454.838022 117.268041,469.072165" id="front-right-paw" fill="#000000"></path>
            <g id="bodytail" transform="translate(136.597938, 31.927835)">
                <path d="M117.359955,415.207021 L164.259522,385.503961 C181.060035,374.863636 191.841202,350.369047 188.3414,330.80197 L172.667169,243.168773 C169.16671,223.598022 172.694854,192.932246 180.550756,174.667274 L203.65369,120.952953 C211.508134,102.69137 232.259002,80.6046061 249.999529,71.6220607 L287.555432,52.6064136 C305.297088,43.6232965 335.655887,34.1820757 355.358957,31.5194987 L367.359955,29.8977423 L363.864159,42.8321853 C358.677762,62.0218543 348.399913,92.5087026 340.907958,110.926427 L337.11092,120.26081 C329.618958,138.678552 332.07324,167.288965 342.587887,184.15621 L366.358826,222.288759 C376.875634,239.159472 380.303283,268.129614 374.019038,286.982348 L354.257572,346.266745 C347.971382,365.125315 328.613955,387.926877 311.023327,397.194521 L247.852759,430.476016 C230.261335,439.744081 200.669255,442.275853 181.760477,436.132019 L117.359955,415.207021 Z" id="tail" fill="url(#linearGradient-1)" transform="translate(246.072817, 233.571184) rotate(-18.000000) translate(-246.072817, -233.571184) "></path>
                <path d="M51.5463918,189.721649 C51.5463918,189.721649 155.17115,276.389696 180.412371,318.395762 C205.653592,360.401828 206.185567,447.069874 206.185567,447.069874 L5.68434189e-14,447.069874 L51.5463918,189.721649 Z" id="body" fill="url(#linearGradient-2)"></path>
            </g>
            <g id="foxhead">
                <g id="foxheadbase" transform="translate(0.000000, 95.360825)">
                    <path d="M8.17265121,139.707133 C20.5201116,113.657409 74.4618604,97.9583508 178.048649,103.387104 C223.853437,105.787632 255.09611,87.7028508 283.68929,90.4160645 C307.534216,92.6787153 343.585762,117.44597 359.491229,127.928685 C327.051738,134.768996 277.381524,157.209896 235.873356,176.565473 C204.036989,191.411015 177.398064,209.517595 160.085822,226.776808 C142.323497,207.415202 114.955605,185.957042 85.322524,166.705937 C59.2016928,149.736562 31.4792498,141.444223 8.17265121,139.707133 Z" id="foxhead-bottom" fill="#F4E2DF" transform="translate(183.831940, 158.457334) rotate(7.000000) translate(-183.831940, -158.457334) "></path>
                    <path d="M392.577293,111.438642 C379.816291,48.5103738 298.921263,0 201.030928,0 C122.281282,0 54.5304693,31.3944014 24.4026684,76.4337515 C65.0198469,103.654824 107.410661,149.261941 142.052214,206.915165 C145.077205,211.949597 147.993353,216.993079 150.799907,222.038031 C154.709557,218.152277 158.714605,214.2956 162.812612,210.474147 C244.734324,134.080914 338.10699,95.7273841 392.577294,111.438646 Z" id="foxhead-top_left" fill="url(#radialGradient-3)"></path>
                </g>
                <g id="facial-features" transform="translate(57.989691, 0.000000)">
                    <ellipse id="nose" fill="#000000" transform="translate(90.206186, 308.634021) rotate(10.000000) translate(-90.206186, -308.634021) " cx="90.2061856" cy="308.634021" rx="12.8865979" ry="17.3969072"></ellipse>
                    <g id="eye-left-copy" transform="translate(70.876289, 149.484536)">
                        <mask id="mask-5" fill="white">
                            <use xlink:href="#path-4"></use>
                        </mask>
                        <use id="Mask" fill="#F3EFCE" xlink:href="#path-4"></use>
                        <ellipse id="pupil" stroke="#979797" fill="url(#radialGradient-6)" mask="url(#mask-5)" cx="43.814433" cy="27.0618557" rx="12.8865979" ry="12.8865979"></ellipse>
                    </g>
                    <g id="squint" transform="translate(148.195876, 150.773196)" stroke="#000000" stroke-width="2" stroke-linecap="square">
                        <path d="M1.93298969,23.8402062 L63.7886598,0.644329897" id="Line"></path>
                        <path d="M0,24.4845361 L65.7216495,28.9948454" id="Line-Copy"></path>
                        <path d="M1.28865979,25.7731959 L55.4123711,48.9690722" id="Line-Copy-2"></path>
                    </g>
                    <g id="whiskers" transform="translate(0.000000, 259.020619)" stroke="#0B0B0B">
                        <path d="M82.4742268,27.0618557 L2.57731959,47.6804124" id="Path-2"></path>
                        <path d="M81.185567,16.7525773 L0.644329897,0.644329897" id="Path-2-Copy"></path>
                        <path d="M78.6082474,23.1958763 L1.28865979,33.5051546" id="Path-2-Copy-2"></path>
                        <path d="M207.474227,6.44329897 L130.154639,16.7525773" id="Path-2-Copy-3"></path>
                        <path d="M193.943299,39.3041237 L115.979381,24.4845361" id="Path-2-Copy-5"></path>
                        <path d="M205.541237,28.9948454 L130.154639,16.7525773" id="Path-2-Copy-4"></path>
                    </g>
                    <g id="rightear" transform="translate(203.158709, 71.703703) rotate(14.000000) translate(-203.158709, -71.703703) translate(164.498915, 20.157311)">
                        <polygon id="outterear" fill="url(#linearGradient-7)" points="38.6597938 9.01703979e-15 62.0575748 52.0848044 77.3195876 103.092784 -3.60681592e-14 103.092784 15.8292493 50.5721738"></polygon>
                        <polygon id="innerear" fill="url(#linearGradient-8)" points="38.6597938 29.6391753 52.746569 57.6965822 72.1649485 103.092784 6.44329897 103.092784 24.4250436 59.1562614"></polygon>
                    </g>
                    <g id="leftear" transform="translate(117.268041, 56.701031) rotate(7.000000) translate(-117.268041, -56.701031) translate(78.608247, 5.154639)">
                        <polygon id="outterear" fill="url(#linearGradient-7)" points="38.6597938 9.01703979e-15 62.0575748 52.0848044 77.3195876 103.092784 0 103.092784 15.8292493 50.5721738"></polygon>
                        <polygon id="innerear" fill="url(#linearGradient-8)" points="38.6597938 29.6391753 52.746569 57.6965822 72.1649485 103.092784 6.44329897 103.092784 24.4250436 59.1562614"></polygon>
                    </g>
                </g>
            </g>
            <g id="backleg" transform="translate(226.804124, 367.268041)">
                <path d="M67.0103093,0 L41.2371134,0 C27.0029704,0 15.4639175,11.5379625 15.4639175,25.7673938 L15.4639175,38.3054159 C15.4639175,49.3546675 22.2291908,64.1891869 30.5638853,71.4299526 L67.0103093,103.092784" id="back-leg" stroke="#710A0A" stroke-width="3" stroke-linecap="square"></path>
                <path d="M77.3195876,114.690722 C77.3195876,100.456579 60.0110084,88.9175258 38.6597938,88.9175258 C17.3085793,88.9175258 0,100.456579 0,114.690722" id="backfoot" fill="#000000"></path>
            </g>
            <path d="M175.257732,487.113402 C175.257732,472.879259 166.603442,461.340206 155.927835,461.340206 C145.252228,461.340206 136.597938,472.879259 136.597938,487.113402" id="front-left-paw" fill="#000000"></path>
            <g id="feathers-happy" transform="translate(52.835052, 167.525773)">
                <g id="feather-happy-c" transform="translate(62.105898, 59.973698) rotate(-57.000000) translate(-62.105898, -59.973698) translate(21.513114, 13.581946)">
                    <g id="feather-body" transform="translate(-0.000000, -0.000000)">
                        <path d="M38.1887076,91.9122752 C43.0247573,91.9122752 45.5110693,83.3539655 47.8389193,72.9225874 C47.9500644,72.4245326 41.6232027,76.8100768 41.7317608,76.2989913 C41.840319,75.7879059 48.8304092,71.4442237 48.9395154,70.9064338 C50.3944048,63.7352142 51.6474254,55.481592 53.0654308,47.4051093 C54.100992,41.506901 56.4512033,30.2834194 54.7905301,31.1266233 C50.6437622,33.2321375 47.2465641,34.5722272 47.8282921,33.8851012 C48.1822351,33.4670304 50.0573895,32.8673788 51.4613033,31.8960822 C52.865217,30.9247855 54.9019769,28.8336126 54.9150366,28.542231 C54.9904184,26.8603411 55.0564615,25.2005757 55.1304739,23.5502437 C55.3064581,19.626137 55.216316,12.0122221 54.1597352,6.88534433 C54.0810557,6.50356534 48.4924519,11.5575853 48.4042682,11.1913576 C48.2848997,10.6956185 53.5357643,6.01041472 53.3981832,5.54981229 C52.4340155,2.3219112 51.0113544,0.0506260673 48.9722767,0.0506260673 C45.0324344,0.0506260673 39.5390549,5.08200169 34.7907881,12.9292648 C34.2232772,13.8671666 39.2034079,25.7355874 39.2034079,25.7355874 C39.2034079,25.7355874 32.4565346,17.1333489 32.1321032,17.7902467 C31.3921638,19.2884514 30.6863,20.8549791 30.0256449,22.4790996 C29.8806471,22.8355547 29.3225015,24.272691 29.1885592,24.6344687 C29.0556588,24.9934321 29.1793201,26.5560667 28.9968823,27.1165449 C26.9334744,33.4556635 24.8614556,40.6985095 24.8614556,47.777344 C24.8614556,53.2368263 25.1030356,58.4557966 25.5723188,63.2701107 C25.6451738,64.0175206 35.122982,73.6527318 35.122982,73.6527318 C35.122982,73.6527318 26.0713517,65.6087429 26.1183358,65.9848472 C27.9904819,80.9712279 32.0561099,91.9122752 38.1887076,91.9122752 Z" id="Oval" fill="#E1F6F7" transform="translate(40.114350, 45.981451) rotate(37.000000) translate(-40.114350, -45.981451) "></path>
                        <path d="M68.7416022,19.1513471 C68.7416022,19.1513471 45.2341495,37.5891391 35.8172152,47.9819678 C26.4002809,58.3747965 2.8928282,91.8241525 2.8928282,91.8241525" id="Path-2" stroke="#F3F5E9" stroke-width="9"></path>
                        <path d="M70.241402,19.2577602 C70.241402,19.2577602 49.6476512,34.9705401 41.3979272,43.8273615 C33.1482032,52.684183 12.5544525,81.189894 12.5544525,81.189894" id="Path-2-Copy" stroke="#E1F6F7" stroke-width="4" transform="translate(41.397927, 50.223827) rotate(-1.000000) translate(-41.397927, -50.223827) "></path>
                    </g>
                    <g id="eye-left" transform="translate(52.666766, 35.922317)">
                        <mask id="mask-10" fill="white">
                            <use xlink:href="#path-9"></use>
                        </mask>
                        <use id="Mask" fill="#FFFFFF" xlink:href="#path-9"></use>
                        <ellipse id="Oval-3" fill="#000000" mask="url(#mask-10)" cx="3.93413166" cy="2.30596703" rx="1.12718028" ry="1.12773438"></ellipse>
                    </g>
                    <g id="eye-right" transform="translate(58.518629, 34.808447)">
                        <mask id="mask-12" fill="white">
                            <use xlink:href="#path-11"></use>
                        </mask>
                        <use id="Mask" fill="#FFFFFF" xlink:href="#path-11"></use>
                        <ellipse id="Oval-3" fill="#000000" mask="url(#mask-12)" cx="2.61571334" cy="2.75627739" rx="1.12718028" ry="1.12773438"></ellipse>
                    </g>
                </g>
                <g id="feather-happy-b" transform="translate(128.994444, 95.911783) rotate(66.000000) translate(-128.994444, -95.911783) translate(89.045990, 49.520031)">
                    <g id="feather-body" transform="translate(0.000000, 0.000000)">
                        <path d="M38.2053829,91.8624724 C43.0414326,91.8624724 45.5277447,83.3041627 47.8555946,72.8727846 C47.9667397,72.3747297 41.639878,76.7602739 41.7484362,76.2491885 C41.8569943,75.7381031 48.8470845,71.3944209 48.9561907,70.856631 C49.3349346,68.9897842 49.699998,67.049584 50.057853,65.0582513 C50.2250198,64.1280292 43.2305763,67.6850642 43.2305763,67.6850642 C43.2305763,67.6850642 50.8873177,60.3059924 51.0526111,59.3295084 C51.7183494,55.3966075 52.3800042,51.3542435 53.0821062,47.3553065 C54.1176673,41.4570982 54.8072054,31.0768205 54.8072054,31.0768205 C54.8072054,31.0768205 54.3581652,32.6601724 53.2445165,33.2243699 C52.1308678,33.7885673 45.5871183,35.7128433 46.0160002,35.2062561 C46.3699432,34.7881853 51.2794873,32.52613 52.6834011,31.5548334 C54.0873149,30.5835367 54.9186522,28.7838098 54.9317119,28.4924282 C55.0070937,26.8105383 55.0731368,25.1507728 55.1471492,23.5004409 C55.3231334,19.5763342 55.2329913,11.9624193 54.1764106,6.83554152 C54.097731,6.45376253 48.5091272,11.5077825 48.4209435,11.1415548 C48.301575,10.6458157 53.5524396,5.9606119 53.4148586,5.50000947 C52.4506908,2.27210838 51.0280297,0.000823251913 48.988952,0.000823251913 C43.6193578,0.000823251913 35.364092,9.34652665 30.0423202,22.4292968 C29.8973224,22.7857519 37.6827159,36.3098856 37.5421912,36.6717757 C37.4036757,37.0284916 29.3391768,24.2228882 29.2052345,24.5846658 C29.0723341,24.9436293 29.1959954,26.5062639 29.0135576,27.066742 C26.9501497,33.4058607 24.8781309,40.6487066 24.8781309,47.7275411 C24.8781309,53.1870235 25.1197109,58.4059937 25.5889941,63.2203079 C25.6618491,63.9677178 35.1396573,73.602929 35.1396573,73.602929 C35.1396573,73.602929 26.088027,65.5589401 26.1350111,65.9350443 C28.0071572,80.9214251 32.0727852,91.8624724 38.2053829,91.8624724 Z" id="Oval" fill="#DAF1F3" transform="translate(40.048214, 45.931648) rotate(37.000000) translate(-40.048214, -45.931648) "></path>
                        <path d="M68.7416022,19.1513471 C68.7416022,19.1513471 45.2341495,37.5891391 35.8172152,47.9819678 C26.4002809,58.3747965 2.8928282,91.8241525 2.8928282,91.8241525" id="Path-2" stroke="#F3F5E9" stroke-width="10"></path>
                        <path d="M72.1287189,18.3665796 C72.1287189,18.3665796 50.6491566,34.2405656 42.0445822,43.188254 C33.4400078,52.1359425 11.9604455,80.9341093 11.9604455,80.9341093" id="Path-2-Copy" stroke="#DAF1F3" stroke-width="9" transform="translate(42.044582, 49.650344) rotate(-1.000000) translate(-42.044582, -49.650344) "></path>
                    </g>
                    <g id="eye-left" transform="translate(52.666766, 36.479252)">
                        <mask id="mask-14" fill="white">
                            <use xlink:href="#path-13"></use>
                        </mask>
                        <use id="Mask" fill="#FFFFFF" xlink:href="#path-13"></use>
                        <ellipse id="Oval-3" fill="#000000" mask="url(#mask-14)" cx="2.77731323" cy="0.900688767" rx="0.847838292" ry="0.848255077"></ellipse>
                    </g>
                    <g id="Oval-3-Copy-2" transform="translate(58.518629, 36.479252)">
                        <mask id="mask-16" fill="white">
                            <use xlink:href="#path-15"></use>
                        </mask>
                        <use id="Mask" fill="#FFFFFF" xlink:href="#path-15"></use>
                        <ellipse id="Oval-3" fill="#000000" mask="url(#mask-16)" cx="2.77731323" cy="0.900688767" rx="0.847838292" ry="0.848255077"></ellipse>
                    </g>
                </g>
                <g id="feather-happy-a" transform="translate(99.457157, 76.795053) rotate(-18.000000) translate(-99.457157, -76.795053) translate(58.864374, 30.403301)">
                    <g id="feather-body">
                        <path d="M38.1887076,91.9122752 C43.0247573,91.9122752 45.5110693,83.3539655 47.8389193,72.9225874 C47.9500644,72.4245326 41.6232027,76.8100768 41.7317608,76.2989913 C41.840319,75.7879059 48.8304092,71.4442237 48.9395154,70.9064338 C50.3944048,63.7352142 51.6474254,55.481592 53.0654308,47.4051093 C54.100992,41.506901 56.4512033,30.2834194 54.7905301,31.1266233 C50.6437622,33.2321375 47.2465641,34.5722272 47.8282921,33.8851012 C48.1822351,33.4670304 50.0573895,32.8673788 51.4613033,31.8960822 C52.865217,30.9247855 54.9019769,28.8336126 54.9150366,28.542231 C54.9904184,26.8603411 55.0564615,25.2005757 55.1304739,23.5502437 C55.3064581,19.626137 55.216316,12.0122221 54.1597352,6.88534433 C54.0810557,6.50356534 48.4924519,11.5575853 48.4042682,11.1913576 C48.2848997,10.6956185 53.5357643,6.01041472 53.3981832,5.54981229 C52.4340155,2.3219112 51.0113544,0.0506260673 48.9722767,0.0506260673 C43.6026825,0.0506260673 35.3474166,9.39632946 30.0256449,22.4790996 C29.8806471,22.8355547 37.6660406,36.3596885 37.5255159,36.7215785 C37.3870004,37.0782944 29.3225015,24.272691 29.1885592,24.6344687 C29.0556588,24.9934321 37.6290896,37.9572673 37.5009126,38.321001 C37.3727356,38.6847348 29.1793201,26.5560667 28.9968823,27.1165449 C26.9334744,33.4556635 24.8614556,40.6985095 24.8614556,47.777344 C24.8614556,53.2368263 25.1030356,58.4557966 25.5723188,63.2701107 C25.6451738,64.0175206 35.122982,73.6527318 35.122982,73.6527318 C35.122982,73.6527318 26.0713517,65.6087429 26.1183358,65.9848472 C27.9904819,80.9712279 32.0561099,91.9122752 38.1887076,91.9122752 Z" id="Oval" fill="#E9F4F5" transform="translate(40.114350, 45.981451) rotate(37.000000) translate(-40.114350, -45.981451) "></path>
                        <path d="M68.7416022,19.1513471 C68.7416022,19.1513471 45.2341495,37.5891391 35.8172152,47.9819678 C26.4002809,58.3747965 2.8928282,91.8241525 2.8928282,91.8241525" id="Path-2" stroke="#F3F5E9" stroke-width="16"></path>
                        <path d="M69.9931563,19.786743 C69.9931563,19.786743 49.3994055,35.4995229 41.1496815,44.3563443 C32.8999575,53.2131658 12.3062068,81.7188768 12.3062068,81.7188768" id="Path-2-Copy" stroke="#E9F4F5" stroke-width="16" transform="translate(41.149682, 50.752810) rotate(-1.000000) translate(-41.149682, -50.752810) "></path>
                    </g>
                    <g id="eye-left" transform="translate(52.703328, 36.616344)">
                        <ellipse id="Oval-2" fill="#FFFFFF" cx="2.11959573" cy="1.13100677" rx="2.11959573" ry="1.13100677"></ellipse>
                        <ellipse id="Oval-3" fill="#000000" cx="2.96743402" cy="1.27238262" rx="0.847838292" ry="0.848255077"></ellipse>
                    </g>
                    <g id="eye-right" transform="translate(58.496890, 35.909465)">
                        <ellipse id="Oval-2-Copy" fill="#FFFFFF" cx="2.11959573" cy="1.13100677" rx="2.11959573" ry="1.13100677"></ellipse>
                        <ellipse id="Oval-3-Copy" fill="#000000" cx="2.96743402" cy="1.27238262" rx="0.847838292" ry="0.848255077"></ellipse>
                    </g>
                </g>
            </g>
        </g>
    </g>
</svg>