<?xml version="1.0" encoding="UTF-8" standalone="no"?>
<svg width="498px" height="500px" viewBox="0 0 498 500" version="1.1" xmlns="http://www.w3.org/2000/svg" xmlns:xlink="http://www.w3.org/1999/xlink">
    <!-- Generator: Sketch 42 (36781) - http://www.bohemiancoding.com/sketch -->
    <title>foxwins</title>
    <desc>Created with Sketch.</desc>
    <defs>
        <rect id="path-1" x="0" y="0" width="497.512438" height="499.71382"></rect>
        <mask id="mask-2" maskContentUnits="userSpaceOnUse" maskUnits="objectBoundingBox" x="0" y="0" width="497.512438" height="499.71382" fill="white">
            <use xlink:href="#path-1"></use>
        </mask>
        <linearGradient x1="89.9038462%" y1="0%" x2="6.35516827%" y2="100%" id="linearGradient-3">
            <stop stop-color="#F4ECEC" offset="0%"></stop>
            <stop stop-color="#F0B0B0" offset="23.9309211%"></stop>
            <stop stop-color="#EA5353" offset="46.0603413%"></stop>
            <stop stop-color="#971817" offset="100%"></stop>
        </linearGradient>
        <linearGradient x1="14.2773437%" y1="56.7016098%" x2="90.4882812%" y2="72.1241713%" id="linearGradient-4">
            <stop stop-color="#971817" offset="0%"></stop>
            <stop stop-color="#EB7D6F" offset="21.8206914%"></stop>
            <stop stop-color="#E3A49C" offset="45.7619675%"></stop>
            <stop stop-color="#D86A5C" offset="73.3860343%"></stop>
            <stop stop-color="#971817" offset="100%"></stop>
        </linearGradient>
        <radialGradient cx="50%" cy="0%" fx="50%" fy="0%" r="92.256012%" id="radialGradient-5">
            <stop stop-color="#E3A49C" offset="0%"></stop>
            <stop stop-color="#BC4E4D" offset="100%"></stop>
        </radialGradient>
        <path d="M21.6060008,25.6288855 C33.5386655,25.6288855 43.2120015,33.5667635 43.2120015,21.6241018 C43.2120015,9.68144017 33.5386655,-2.27373675e-13 21.6060008,-2.27373675e-13 C9.67333604,-2.27373675e-13 0,9.68144017 0,21.6241018 C0,33.5667635 9.67333604,25.6288855 21.6060008,25.6288855 Z" id="path-6"></path>
        <radialGradient cx="50%" cy="50%" fx="50%" fy="50%" r="86.1492138%" id="radialGradient-8">
            <stop stop-color="#292222" offset="0%"></stop>
            <stop stop-color="#E1690E" offset="100%"></stop>
        </radialGradient>
        <path d="M21.6060008,25.6288855 C33.5386655,25.6288855 43.2120015,33.5667635 43.2120015,21.6241018 C43.2120015,9.68144017 33.5386655,-2.27373675e-13 21.6060008,-2.27373675e-13 C9.67333604,-2.27373675e-13 0,9.68144017 0,21.6241018 C0,33.5667635 9.67333604,25.6288855 21.6060008,25.6288855 Z" id="path-9"></path>
        <linearGradient x1="50%" y1="0%" x2="50%" y2="100%" id="linearGradient-11">
            <stop stop-color="#E3A49C" offset="0%"></stop>
            <stop stop-color="#BC434D" offset="100%"></stop>
        </linearGradient>
        <linearGradient x1="50%" y1="0%" x2="50%" y2="100%" id="linearGradient-12">
            <stop stop-color="#F4E1DF" offset="0%"></stop>
            <stop stop-color="#E3A49C" offset="100%"></stop>
        </linearGradient>
        <radialGradient cx="36.668276%" cy="14.6023337%" fx="36.668276%" fy="14.6023337%" r="68.1309582%" id="radialGradient-13">
            <stop stop-color="#F1E3CC" offset="0%"></stop>
            <stop stop-color="#E2C698" offset="38.6171632%"></stop>
            <stop stop-color="#C4957F" offset="100%"></stop>
        </radialGradient>
    </defs>
    <g id="Page-1" stroke="none" stroke-width="1" fill="none" fill-rule="evenodd">
        <g id="foxwins" transform="translate(249.000000, 250.000000) scale(-1, 1) translate(-249.000000, -250.000000) ">
            <use id="Rectangle-Copy-2" stroke="#000000" mask="url(#mask-2)" stroke-width="4" fill="#F4E1DF" xlink:href="#path-1"></use>
            <g id="fox-eating-egg" transform="translate(239.500000, 250.000000) scale(-1, 1) translate(-239.500000, -250.000000) translate(0.000000, 28.000000)">
                <path d="M131.716305,393.558654 C131.716305,381.615992 124.461303,371.934552 115.511804,371.934552 C106.562305,371.934552 99.3073035,381.615992 99.3073035,393.558654" id="front-right-paw" fill="#000000"></path>
                <g id="bodytail" transform="translate(115.511804, 25.948922)">
                    <path d="M98.4646213,349.085725 L132.878266,327.272157 C149.670129,316.628401 160.448256,292.139962 156.948731,272.558045 L145.849916,210.453592 C142.351803,190.879578 145.880489,160.201924 153.732584,141.930508 L168.511463,107.540829 C176.363053,89.2705881 197.108914,67.1720684 214.840819,58.1863668 L235.958932,47.4846931 C253.694339,38.497217 284.041688,29.0515172 303.746249,26.3865079 L308.042829,25.8054026 L306.624975,31.0558569 C301.441702,50.2500352 291.169237,80.7460302 283.687729,99.1534807 L284.864727,96.2576018 C277.380109,114.672703 279.831765,143.278657 290.345226,160.158131 L304.13443,182.296844 C314.645844,199.173031 318.073478,228.14734 311.789161,247.016085 L298.894996,285.730986 C292.611173,304.598249 273.25565,327.413161 255.677457,336.682013 L212.996068,359.187596 C195.411503,368.459808 165.820669,370.989367 146.925577,364.844836 L98.4646213,349.085725 Z" id="tail" fill="url(#linearGradient-3)" transform="translate(206.699500, 197.003031) rotate(-18.000000) translate(-206.699500, -197.003031) "></path>
                    <path d="M43.2120015,160.018354 C43.2120015,160.018354 130.081966,232.734158 151.242005,267.977884 C172.402045,303.221609 172.848006,375.937413 172.848006,375.937413 L0,375.937413 L43.2120015,160.018354 Z" id="body" fill="url(#linearGradient-4)"></path>
                </g>
                <g id="foxhead" transform="translate(1.000000, 0.000000)">
                    <g id="foxheadbase" transform="translate(0.000000, 80.009177)">
                        <path d="M6.84579544,117.242483 C17.1823998,95.3757909 62.4040719,82.1940769 149.264733,86.7462512 C187.663475,88.758644 213.855333,73.5841269 237.825317,75.8594996 C257.837158,77.7591418 288.104077,98.5822805 301.414526,107.359783 C274.218975,113.076005 232.548047,131.902012 197.72857,148.138601 C171.042519,160.582511 148.714169,175.7629 134.203448,190.235458 C119.315807,174.000465 96.3793929,156.010665 71.543904,139.872229 C49.6403065,125.638976 26.3906056,118.690189 6.84579544,117.242483 Z" id="foxhead-bottom" fill="#F4E2DF" transform="translate(154.130161, 132.930881) rotate(7.000000) translate(-154.130161, -132.930881) "></path>
                        <path d="M329.127696,93.6232038 C318.511445,40.7649329 250.654018,0 168.526806,0 C102.48156,0 45.6647144,26.363052 20.4244836,64.1778637 C54.5118908,86.9836637 90.0902042,125.234657 119.154014,173.604959 C121.674234,177.799309 124.104274,182.001188 126.44352,186.204357 C129.695115,182.974167 133.02539,179.768039 136.432349,176.590998 C205.12857,112.530736 283.446996,80.3967166 329.127697,93.6232069 Z" id="foxhead-top_left" fill="url(#radialGradient-5)"></path>
                    </g>
                    <g id="facial-features" transform="translate(47.775189, 0.000000)">
                        <ellipse id="nose" fill="#000000" transform="translate(76.459315, 258.948620) rotate(10.000000) translate(-76.459315, -258.948620) " cx="76.4593155" cy="258.94862" rx="10.8030004" ry="14.5962687"></ellipse>
                        <g id="eye-left" transform="translate(109.948617, 118.932560)">
                            <mask id="mask-7" fill="white">
                                <use xlink:href="#path-6"></use>
                            </mask>
                            <use id="Mask" fill="#F3EFCE" xlink:href="#path-6"></use>
                            <ellipse id="pupil" stroke="#979797" fill="url(#radialGradient-8)" mask="url(#mask-7)" cx="22.0726904" cy="19.1243557" rx="10.8030004" ry="10.8120509"></ellipse>
                        </g>
                        <g id="eye-right" transform="translate(46.107206, 119.140152)">
                            <mask id="mask-10" fill="white">
                                <use xlink:href="#path-9"></use>
                            </mask>
                            <use id="Mask" fill="#F3EFCE" xlink:href="#path-9"></use>
                            <ellipse id="pupil" stroke="#979797" fill="url(#radialGradient-8)" mask="url(#mask-10)" cx="22.0726904" cy="19.1243557" rx="10.8030004" ry="10.8120509"></ellipse>
                        </g>
                        <g id="whiskers" transform="translate(0.000000, 217.322224)" stroke="#0B0B0B">
                            <path d="M69.1392024,22.7053069 L2.16060008,40.0045884" id="Path-2"></path>
                            <path d="M68.0589024,14.0556662 L0.540150019,0.540602546" id="Path-2-Copy"></path>
                            <path d="M65.8983023,19.4616917 L1.08030004,28.1113324" id="Path-2-Copy-2"></path>
                            <path d="M173.928306,5.40602546 L109.110304,14.0556662" id="Path-2-Copy-3"></path>
                            <path d="M162.585156,32.9767553 L97.2270034,20.5428968" id="Path-2-Copy-5"></path>
                            <path d="M172.307856,24.3271146 L109.110304,14.0556662" id="Path-2-Copy-4"></path>
                        </g>
                        <g id="rightear" transform="translate(171.176246, 60.426825) rotate(14.000000) translate(-171.176246, -60.426825) translate(138.676246, 16.926825)">
                            <polygon id="outterear" fill="url(#linearGradient-11)" points="32.4090011 9.9475983e-14 52.0236612 43.6999401 64.8180023 86.4964074 -8.52651283e-14 86.4964074 13.2698627 42.43082"></polygon>
                            <polygon id="innerear" fill="url(#linearGradient-12)" points="32.4090011 24.8677171 44.2181255 48.4083066 60.4968021 86.4964074 5.40150019 86.4964074 20.4758274 49.6329996"></polygon>
                        </g>
                        <g id="leftear" transform="translate(99.205251, 47.834033) rotate(7.000000) translate(-99.205251, -47.834033) translate(66.705251, 4.334033)">
                            <polygon id="outterear" fill="url(#linearGradient-11)" points="32.4090011 -9.9475983e-14 52.0236612 43.6999401 64.8180023 86.4964074 -4.26325641e-14 86.4964074 13.2698627 42.43082"></polygon>
                            <polygon id="innerear" fill="url(#linearGradient-12)" points="32.4090011 24.8677171 44.2181255 48.4083066 60.4968021 86.4964074 5.40150019 86.4964074 20.4758274 49.6329996"></polygon>
                        </g>
                    </g>
                </g>
                <g id="backleg" transform="translate(191.132807, 308.143451)">
                    <path d="M56.175602,0 L34.5696012,0 C22.6369365,0 12.9636005,9.66591285 12.9636005,21.6014258 L12.9636005,28.9191914 C12.9636005,39.9678351 19.7154757,54.7951362 28.0618914,62.0521595 L56.175602,86.4964074" id="back-leg" stroke="#710A0A" stroke-width="3" stroke-linecap="square"></path>
                    <path d="M64.8180023,96.2272532 C64.8180023,84.2845915 50.3079982,74.6031514 32.4090011,74.6031514 C14.5100041,74.6031514 0,84.2845915 0,96.2272532" id="backfoot" fill="#000000"></path>
                </g>
                <path d="M147.920805,408.695525 C147.920805,396.752863 140.665803,387.071423 131.716305,387.071423 C122.766806,387.071423 115.511804,396.752863 115.511804,408.695525" id="front-left-paw" fill="#000000"></path>
                <g id="dedegghed" transform="translate(65.446272, 366.935738) scale(-1, -1) rotate(90.000000) translate(-65.446272, -366.935738) translate(-11.553728, 302.435738)">
                    <path d="M153.864746,83.3057992 C146.499233,40.2645369 122.279317,0.152985038 89.5170352,0.152985038 C52.944415,0.152985038 25.5286031,50.1372522 23.2964485,98.383622 C22.8939246,107.08388 23.2535648,115.609001 24.3906404,123.739228 L44.360119,107.961888 L72.0557083,128.070175 L103.557902,107.961888 L136.445559,107.961888 L153.864746,83.3057992 Z" id="small-egg-copy-4" fill="url(#radialGradient-13)"></path>
                    <g id="mouth" transform="translate(90.710882, 68.333422)">
                        <path d="M20.3987546,28.8972607 C30.2897972,28.8972607 51.5479952,16.1341918 51.5479952,16.1341918 C51.5479952,16.1341918 40.181397,6.6617511 30.2903543,6.6617511 C20.3993116,6.6617511 15.7293612,16.1341918 15.7293612,16.1341918 C15.7293612,16.1341918 10.5077119,28.8972607 20.3987546,28.8972607 Z" id="Oval" stroke="#D95A5A" stroke-width="3" fill="#FFFFFF" transform="translate(32.950037, 17.779506) rotate(-24.000000) translate(-32.950037, -17.779506) "></path>
                        <path d="M11.6074084,34.5784166 C18.1849398,34.5784166 19.8615655,31.6461289 19.8615655,24.3747016 C19.8615655,19.7631686 18.7108922,18.0851383 15.0782219,18.0851383 C11.4455516,18.0851383 0.826903838,17.1032742 0.826903838,24.3747016 C0.826903838,31.6461289 5.02987698,34.5784166 11.6074084,34.5784166 Z" id="Oval-4" fill="#9A0909"></path>
                    </g>
                    <g id="Group" transform="translate(116.278591, 49.276270) rotate(-116.000000) translate(-116.278591, -49.276270) translate(107.278591, 41.276270)" stroke="#000000" stroke-width="3" stroke-linecap="square">
                        <path d="M0.164438286,0.164576049 L17.5948966,14.9764205" id="Line"></path>
                        <path d="M17.5948966,0.164576049 L0.164438286,14.9764205" id="Line-Copy-6"></path>
                    </g>
                    <g id="Group-Copy" transform="translate(95.267485, 60.606599) rotate(-112.000000) translate(-95.267485, -60.606599) translate(86.267485, 52.606599)" stroke="#000000" stroke-width="3" stroke-linecap="square">
                        <path d="M0.164438286,0.164576049 L17.5948966,14.9764205" id="Line"></path>
                        <path d="M0.164438286,0.164576049 L17.5948966,14.9764205" id="Line-Copy-6" transform="translate(8.879667, 7.570498) scale(-1, 1) translate(-8.879667, -7.570498) "></path>
                    </g>
                    <g id="eggblood1" transform="translate(56.905728, 91.741580) rotate(80.000000) translate(-56.905728, -91.741580) translate(28.405728, 39.741580)">
                        <path d="M27.1021405,101.753706 C39.5572638,103.95172 51.4408365,104.003344 54.9763186,98.1532101 C58.0919368,92.9978216 53.5644247,82.764268 53.5644247,72.3452971 C53.5644247,68.1127208 48.7508036,60.4212981 48.1210815,54.9249365 C47.4913593,49.4285748 42.4373746,3.44253194 38.1116756,0.609654514 C32.2847848,4.69310556 20.1484522,34.9257657 10.682274,59.6659324 C6.91679523,69.5071346 2.3328158,82.8992553 1.31381533,88.6831357 C-4.26978449,96.2173547 12.9915124,99.263537 27.1021405,101.753706 Z" id="Oval-7" fill="#F9F9DD"></path>
                        <path d="M29.3667433,52.2512821 C31.4045494,52.2512821 32.4557258,49.9154265 33.711143,46.4265699 C34.481813,44.2848457 35.9442747,41.5892134 35.9442747,39.0851981 C35.9442747,37.3019897 34.1284054,34.483673 33.711143,32.8313083 C32.5880044,28.3836649 31.7646511,25.9191142 29.3667433,25.9191142 C27.3409772,25.9191142 25.3152112,28.4168088 24.058048,31.8737044 C23.2742473,34.028967 21.8025821,36.5570826 21.8025821,39.0851981 C21.8025821,41.6642747 24.2795372,44.2433513 25.0913478,46.4265699 C26.3516679,49.8159735 27.3664364,52.2512821 29.3667433,52.2512821 Z" id="Oval-6" fill="#E5950A"></path>
                        <path d="M34.6978756,81.4383091 C35.128017,80.7964035 35.9442747,79.9884836 35.9442747,79.2379941 C35.9442747,78.7035408 34.9307663,77.8588507 34.6978756,77.3636131 C34.0710076,76.0305903 33.6114615,75.2919289 32.2730944,75.2919289 C31.1424342,75.2919289 30.0117741,76.040524 29.3101016,77.0766055 C28.8726315,77.7225688 28.051237,78.4802814 28.051237,79.2379941 C28.051237,80.0109806 28.856998,84.3054466 29.3101016,84.9597887 C30.0135361,85.9756419 33.9971777,82.4839698 34.6978756,81.4383091 Z" id="Oval-6-Copy" fill="#E5950A"></path>
                        <path d="M38.1598209,95.7732398 C38.3032014,95.5592713 38.5752873,95.2899646 38.5752873,95.0398015 C38.5752873,94.8616504 38.2374511,94.580087 38.1598209,94.4150078 C37.9508649,93.9706668 37.7976829,93.7244464 37.3515605,93.7244464 C36.9746738,93.7244464 36.5977871,93.9739781 36.3638963,94.3193386 C36.2180729,94.5346597 35.9442747,94.7872306 35.9442747,95.0398015 C35.9442747,95.2974636 36.2128617,96.7289523 36.3638963,96.9470663 C36.4652698,97.0934633 36.9264504,98.5605564 37.259781,98.3325758 C37.5931116,98.1045951 38.0272342,95.9711007 38.1598209,95.7732398 Z" id="Oval-6-Copy-2" fill="#E5950A"></path>
                    </g>
                </g>
                <g id="dedeggbutt" transform="translate(166.147627, 294.494318)">
                    <path d="M0.107011717,46.9411896 C6.11931536,89.8120628 30.8163796,123.218123 75.8664822,123.218123 C130.827737,123.218123 157.226449,73.4963095 152.898791,17.5266545 C152.447912,11.6954257 151.716623,5.84231283 150.720134,0.0351717717 L115.154079,31.6929531 L84.5483436,24.056097 L53.9426083,54.6035217 L15.6854393,31.6929531 L0.107011717,46.9411896 Z" id="small-egg-copy-5" fill="url(#radialGradient-13)"></path>
                    <g id="eggblood1-copy" transform="translate(76.634786, 82.604521) scale(-1, 1) rotate(80.000000) translate(-76.634786, -82.604521) translate(30.634786, 51.604521)">
                        <path d="M56.7896081,42.675183 C69.9509876,50.1095834 68.4474207,63.4755749 84.1812352,61.1404453 C85.3458072,54.5302963 86.5486786,47.7027579 89.130666,33.047312 C96.98653,-1.34857586 79.3027931,7.63262171 56.1534236,7.63262171 C44.4390841,7.63262171 33.0222036,2.07420442 21.8680531,4.13799605 C12.4477114,9.29121054 0.211643831,15.7275587 0.211643831,20.7631871 C0.211643831,30.9574431 36.6347502,31.4507356 56.7896081,42.675183 Z" id="Oval-8" fill="#F9F9DD"></path>
                        <path d="M37.852672,24.2861833 C39.8904781,24.2861833 40.9998631,14.2658439 42.2552802,10.7769873 C43.0259503,8.6352632 42.7077667,6.80472361 42.7077667,4.30070838 C42.7077667,2.51749991 42.6725427,-1.16590958 42.2552802,-2.81827426 C41.1321417,-7.26591763 40.6625952,-7.64541145 38.2646873,-7.64541145 C36.2389213,-7.64541145 33.8593484,-7.23277374 32.6021852,-3.77587815 C31.8183846,-1.62061549 30.3467194,0.907500055 30.3467194,3.4356156 C30.3467194,6.01469219 32.8236744,8.59376879 33.6354851,10.7769873 C34.8958051,14.1663909 35.8523651,24.2861833 37.852672,24.2861833 Z" id="Oval-6" fill="#E5950A" transform="translate(36.559786, 8.320386) rotate(-84.000000) translate(-36.559786, -8.320386) "></path>
                        <path d="M86.0736646,50.3989531 C86.503806,49.7570475 87.8205226,41.2342191 87.8205226,40.4837296 C87.8205226,39.9492763 80.1700664,41.1117424 78.8316992,41.1117424 C77.7010391,41.1117424 76.570379,41.8603375 75.8687065,42.896419 C75.4312364,43.5423823 74.6098418,44.300095 74.6098418,45.0578077 C74.6098418,45.8307941 77.1556619,47.3988122 77.6087656,48.0531543 C78.3122,49.0690074 85.3729667,51.4446138 86.0736646,50.3989531 Z" id="Oval-6-Copy" fill="#E5950A"></path>
                        <path d="M8.7533635,20.4497358 C8.7533635,20.1012932 7.55758754,15.3944341 6.68502464,15.3944341 C5.94787857,15.3944341 4.88560576,18.3651106 4.42814282,19.0405951 C4.14292947,19.4617378 3.60741244,19.9557368 3.60741244,20.4497358 C3.60741244,20.9536926 4.13273702,23.7535161 4.42814282,24.1801214 C4.62641763,24.4664567 5.52843256,27.3359182 6.18038797,26.8900149 C6.83234337,26.4441116 8.7533635,20.9390255 8.7533635,20.4497358 Z" id="Oval-6-Copy-2" fill="#E5950A" transform="translate(6.180388, 21.165703) scale(-1, -1) rotate(275.000000) translate(-6.180388, -21.165703) "></path>
                    </g>
                </g>
            </g>
        </g>
    </g>
</svg>